<svg xmlns="http://www.w3.org/2000/svg" width="29.786" height="35.942" viewBox="0 0 29.786 35.942"><defs><style>.a{fill:#5b2ad0;}</style></defs><path class="a" d="M-309.541-237.182a14.887,14.887,0,0,1-14.889-14.884,14.887,14.887,0,0,1,4.361-10.53l10.528-10.527,5.048,5.048a11.006,11.006,0,0,1,.01,15.566l-.01.01-2.74,2.74a3.265,3.265,0,0,1-4.617,0,3.265,3.265,0,0,1,0-4.617l2.74-2.74a4.481,4.481,0,0,0,.006-6.337l-.006-.006a.607.607,0,0,0-.859,0l0,0-5.48,5.479a8.36,8.36,0,0,0-.128,11.822,8.36,8.36,0,0,0,11.822.128c.043-.042.086-.085.128-.128,4.061-4.06,6.651-8.778,6.93-12.619.02-.273.026-.54.022-.8a14.886,14.886,0,0,1-5.347,20.362,14.885,14.885,0,0,1-7.516,2.032" transform="translate(324.43 273.123)"/></svg>