<svg xmlns="http://www.w3.org/2000/svg" width="138.141" height="32.496" viewBox="0 0 138.141 32.496"><defs><style>.a{fill:#fff;}</style></defs><path class="a" d="M9.662-106.476a9.429,9.429,0,0,1-4.948-1.4A10.635,10.635,0,0,1,1.031-111.6a9.645,9.645,0,0,1-1.379-4.966,9.8,9.8,0,0,1,1.359-5.113,9.578,9.578,0,0,1,3.715-3.546A10.854,10.854,0,0,1,9.95-126.5a9.736,9.736,0,0,1,7.507,3.475l.186.208L4.752-110.087a9.686,9.686,0,0,0,2.3,1.377,7.377,7.377,0,0,0,2.772.494,7.812,7.812,0,0,0,3.929-1.073,9.2,9.2,0,0,0,3.112-2.953l.54-.818v3.192l-.076.084a9.752,9.752,0,0,1-3.439,2.524,10.888,10.888,0,0,1-4.231.784m.247-18.279A8.771,8.771,0,0,0,5.583-123.7a7.766,7.766,0,0,0-2.957,2.877,8.447,8.447,0,0,0,.911,9.553L15.154-122.81a8.884,8.884,0,0,0-2.312-1.452,7.9,7.9,0,0,0-2.936-.493" transform="translate(34.71 138.971)"/><path class="a" d="M27.735-106.6a7.543,7.543,0,0,1-3.683-.921,6.95,6.95,0,0,1-2.663-2.6,7.222,7.222,0,0,1-.988-3.731v-24.584h1.906v24.584a5.542,5.542,0,0,0,.719,2.816A5.313,5.313,0,0,0,25-109.063a5.389,5.389,0,0,0,2.735.722h.294v1.741Z" transform="translate(34.71 138.971)"/><path class="a" d="M38.933-106.476a9.43,9.43,0,0,1-4.949-1.4A10.615,10.615,0,0,1,30.3-111.6a9.624,9.624,0,0,1-1.38-4.966,9.806,9.806,0,0,1,1.36-5.113A9.561,9.561,0,0,1,34-125.224,10.853,10.853,0,0,1,39.22-126.5a9.732,9.732,0,0,1,7.507,3.475l.186.208L34.026-110.087a9.686,9.686,0,0,0,2.3,1.377,7.377,7.377,0,0,0,2.772.494,7.812,7.812,0,0,0,3.929-1.073,9.2,9.2,0,0,0,3.112-2.953l.54-.818v3.192l-.075.084a9.764,9.764,0,0,1-3.44,2.524,10.883,10.883,0,0,1-4.23.784m.247-18.279a8.775,8.775,0,0,0-4.324,1.054,7.749,7.749,0,0,0-2.956,2.877,8.443,8.443,0,0,0,.91,9.553L44.426-122.81a8.906,8.906,0,0,0-2.313-1.452,7.9,7.9,0,0,0-2.935-.493" transform="translate(34.71 138.971)"/><path class="a" d="M57.926-124.8a5.479,5.479,0,0,1,4.328,1.753,7.362,7.362,0,0,1,1.553,4.993v11.08h1.906v-11.08a8.872,8.872,0,0,0-2.075-6.231,7.329,7.329,0,0,0-5.63-2.256h-.25a7.328,7.328,0,0,0-5.63,2.256,8.873,8.873,0,0,0-2.074,6.231v11.08h1.9v-11.08a7.357,7.357,0,0,1,1.553-4.993,5.478,5.478,0,0,1,4.329-1.753Z" transform="translate(34.71 138.971)"/><path class="a" d="M97.409-106.516a8.843,8.843,0,0,1-3.618-.7,5,5,0,0,1-2.314-1.865l-.043-.071v-2.27L92-111.54a5.366,5.366,0,0,0,2.027,2.483,6.192,6.192,0,0,0,3.3.8,4.044,4.044,0,0,0,3.043-1.168,4.156,4.156,0,0,0,1.15-3.026,4.007,4.007,0,0,0-.64-2.437,7.82,7.82,0,0,0-2.182-1.8l-1.559-.9c-1.127-.686-1.985-1.237-2.556-1.64a5.3,5.3,0,0,1-1.414-1.439,3.513,3.513,0,0,1-.541-1.951,3.589,3.589,0,0,1,1.256-2.858,4.759,4.759,0,0,1,3.2-1.059,6.936,6.936,0,0,1,3.952,1.08l.13.087v2.843l-.529-.7a4.005,4.005,0,0,0-3.429-1.572,3.051,3.051,0,0,0-1.958.6,1.769,1.769,0,0,0-.713,1.458,2.307,2.307,0,0,0,.439,1.412,4.823,4.823,0,0,0,1.3,1.182c.582.38,1.567.958,2.927,1.719a10.84,10.84,0,0,1,3.175,2.524,5.446,5.446,0,0,1,1.051,3.451,5.621,5.621,0,0,1-1.762,4.312,6.059,6.059,0,0,1-4.255,1.623" transform="translate(34.71 138.971)"/><path class="a" d="M86.782-122.376v.041a7.478,7.478,0,0,0-.5-.7,9.473,9.473,0,0,0-2.639-2.144,10.213,10.213,0,0,0-1.813-.841l-.215-.069-.326-.1c-.166-.044-.332-.085-.5-.121-.039-.009-.078-.019-.118-.027-.165-.034-.332-.061-.5-.086-.063-.009-.125-.021-.187-.029-.116-.015-.232-.024-.348-.035s-.234-.024-.353-.031c-.078-.005-.157-.005-.235-.008-.136,0-.272-.011-.41-.011a9.885,9.885,0,0,0-5.009,1.356,10.126,10.126,0,0,0-3.687,3.666,9.832,9.832,0,0,0,0,9.973,10.11,10.11,0,0,0,3.687,3.666,9.981,9.981,0,0,0,10.157-.063,9.025,9.025,0,0,0,2.994-2.82v3.787h1.9v-9.555a9.717,9.717,0,0,0-1.357-4.986c-.18-.306-.36-.592-.548-.863m-1.01,9.963a8.475,8.475,0,0,1-2.965,3.025,7.694,7.694,0,0,1-4.047,1.131,7.9,7.9,0,0,1-4.09-1.133,8.677,8.677,0,0,1-3.047-3.027,7.792,7.792,0,0,1-1.132-4.069,7.911,7.911,0,0,1,1.132-4.09,8.863,8.863,0,0,1,3.029-3.069,7.782,7.782,0,0,1,8.114-.02,8.576,8.576,0,0,1,2.986,3.046,8.184,8.184,0,0,1,.02,8.206" transform="translate(34.71 138.971)"/><path class="a" d="M-21.249-106.476A13.459,13.459,0,0,1-34.71-119.933a13.458,13.458,0,0,1,3.943-9.52l9.518-9.518,4.564,4.564a9.952,9.952,0,0,1,.009,14.073l-.009.009-2.477,2.477a2.951,2.951,0,0,1-4.174,0,2.951,2.951,0,0,1,0-4.174l2.477-2.477a4.052,4.052,0,0,0,0-5.729l0-.005a.55.55,0,0,0-.777,0l0,0-4.955,4.954a7.558,7.558,0,0,0-.116,10.688,7.558,7.558,0,0,0,10.688.115c.039-.038.078-.076.116-.115,3.672-3.671,6.013-7.936,6.265-11.409.018-.247.024-.488.02-.723a13.46,13.46,0,0,1-4.834,18.41,13.464,13.464,0,0,1-6.8,1.837" transform="translate(34.71 138.971)"/></svg>