<svg xmlns="http://www.w3.org/2000/svg" width="70" height="60.037" viewBox="0 0 70 60.037"><defs><style>.a{fill:#fff;}</style></defs><g transform="translate(0 38.48)"><path class="a" d="M-438.273,19.467a6.36,6.36,0,0,1-3.337-.944,7.166,7.166,0,0,1-2.484-2.512,6.505,6.505,0,0,1-.93-3.35,6.615,6.615,0,0,1,.917-3.449A6.457,6.457,0,0,1-441.6,6.821a7.326,7.326,0,0,1,3.524-.857,6.566,6.566,0,0,1,5.063,2.344l.126.14-8.7,8.584a6.546,6.546,0,0,0,1.551.929,4.983,4.983,0,0,0,1.87.333,5.264,5.264,0,0,0,2.65-.724,6.205,6.205,0,0,0,2.1-1.992l.364-.552v2.153l-.051.057a6.581,6.581,0,0,1-2.32,1.7,7.345,7.345,0,0,1-2.854.529m.167-12.329a5.914,5.914,0,0,0-2.916.711,5.238,5.238,0,0,0-1.994,1.941,5.7,5.7,0,0,0,.614,6.444l7.836-7.783a5.986,5.986,0,0,0-1.56-.979,5.326,5.326,0,0,0-1.98-.333" transform="translate(445.026 2.089)"/><path class="a" d="M-356.138-20.858a5.089,5.089,0,0,1-2.484-.621,4.69,4.69,0,0,1-1.8-1.754,4.876,4.876,0,0,1-.666-2.517V-42.332h1.286V-25.75a3.741,3.741,0,0,0,.485,1.9,3.587,3.587,0,0,0,1.329,1.33,3.636,3.636,0,0,0,1.845.487h.2v1.174Z" transform="translate(375.08 42.332)"/><path class="a" d="M-319.862,19.47a6.361,6.361,0,0,1-3.338-.944,7.16,7.16,0,0,1-2.484-2.512,6.5,6.5,0,0,1-.931-3.35,6.616,6.616,0,0,1,.917-3.449,6.448,6.448,0,0,1,2.506-2.391,7.322,7.322,0,0,1,3.523-.857,6.565,6.565,0,0,1,5.063,2.344l.125.14-8.692,8.583a6.537,6.537,0,0,0,1.551.929,4.983,4.983,0,0,0,1.87.333,5.264,5.264,0,0,0,2.65-.724,6.206,6.206,0,0,0,2.1-1.992l.364-.552v2.153l-.051.057a6.585,6.585,0,0,1-2.32,1.7,7.341,7.341,0,0,1-2.853.529m.167-12.329a5.916,5.916,0,0,0-2.917.711,5.23,5.23,0,0,0-1.994,1.941,5.7,5.7,0,0,0,.614,6.444l7.834-7.783a5.986,5.986,0,0,0-1.56-.979,5.323,5.323,0,0,0-1.98-.333" transform="translate(346.358 2.086)"/><path class="a" d="M-235.863,6.949a3.7,3.7,0,0,1,2.919,1.182A4.964,4.964,0,0,1-231.9,11.5v7.474h1.286V11.5a5.985,5.985,0,0,0-1.4-4.2,4.944,4.944,0,0,0-3.8-1.522h-.169a4.943,4.943,0,0,0-3.8,1.522,5.987,5.987,0,0,0-1.4,4.2v7.474h1.282V11.5a4.964,4.964,0,0,1,1.047-3.368,3.7,3.7,0,0,1,2.92-1.182Z" transform="translate(275.17 2.251)"/><path class="a" d="M-69.692,19.3a5.966,5.966,0,0,1-2.44-.472,3.373,3.373,0,0,1-1.561-1.258l-.029-.048V15.988l.38-.08a3.624,3.624,0,0,0,1.367,1.675,4.183,4.183,0,0,0,2.226.54,2.727,2.727,0,0,0,2.052-.788,2.8,2.8,0,0,0,.776-2.041,2.7,2.7,0,0,0-.432-1.644,5.279,5.279,0,0,0-1.472-1.214l-1.051-.607c-.76-.463-1.339-.834-1.724-1.106a3.584,3.584,0,0,1-.954-.971,2.372,2.372,0,0,1-.365-1.316,2.421,2.421,0,0,1,.847-1.928,3.209,3.209,0,0,1,2.158-.714,4.678,4.678,0,0,1,2.666.728l.088.059V8.5l-.357-.472a2.7,2.7,0,0,0-2.313-1.06,2.058,2.058,0,0,0-1.321.4,1.2,1.2,0,0,0-.481.983,1.558,1.558,0,0,0,.3.952,3.262,3.262,0,0,0,.877.8c.393.256,1.057.646,1.974,1.159a7.313,7.313,0,0,1,2.142,1.7,3.672,3.672,0,0,1,.709,2.328A3.792,3.792,0,0,1-66.822,18.2a4.087,4.087,0,0,1-2.87,1.095" transform="translate(135.63 2.232)"/><path class="a" d="M-153.886,8.608v.028a5,5,0,0,0-.337-.472A6.384,6.384,0,0,0-156,6.717a6.869,6.869,0,0,0-1.223-.567l-.145-.047-.22-.068c-.112-.03-.224-.057-.337-.082l-.08-.018c-.111-.023-.224-.041-.337-.058-.042-.006-.084-.014-.126-.02-.078-.01-.157-.016-.235-.024s-.158-.016-.238-.021c-.053,0-.106,0-.159-.005-.092,0-.183-.007-.276-.007a6.673,6.673,0,0,0-3.379.915,6.83,6.83,0,0,0-2.487,2.473,6.633,6.633,0,0,0,0,6.727,6.825,6.825,0,0,0,2.487,2.473,6.734,6.734,0,0,0,6.851-.043,6.08,6.08,0,0,0,2.019-1.9V19h1.282V12.553a6.556,6.556,0,0,0-.915-3.363c-.122-.206-.243-.4-.37-.582m-.681,6.72a5.713,5.713,0,0,1-2,2.04,5.194,5.194,0,0,1-2.73.763,5.329,5.329,0,0,1-2.759-.764,5.851,5.851,0,0,1-2.055-2.042,5.26,5.26,0,0,1-.764-2.745,5.338,5.338,0,0,1,.764-2.759,5.984,5.984,0,0,1,2.043-2.07,5.249,5.249,0,0,1,5.473-.014,5.785,5.785,0,0,1,2.014,2.055,5.52,5.52,0,0,1,.014,5.535" transform="translate(212.656 2.224)"/></g><path class="a" d="M-309.541-237.182a14.887,14.887,0,0,1-14.889-14.884,14.887,14.887,0,0,1,4.361-10.53l10.528-10.527,5.048,5.048a11.006,11.006,0,0,1,.01,15.566l-.01.01-2.74,2.74a3.265,3.265,0,0,1-4.617,0,3.265,3.265,0,0,1,0-4.617l2.74-2.74a4.481,4.481,0,0,0,.006-6.337l-.006-.006a.607.607,0,0,0-.859,0l0,0-5.48,5.479a8.36,8.36,0,0,0-.128,11.822,8.36,8.36,0,0,0,11.822.128c.043-.042.086-.085.128-.128,4.061-4.06,6.651-8.778,6.93-12.619.02-.273.026-.54.022-.8a14.886,14.886,0,0,1-5.347,20.362,14.885,14.885,0,0,1-7.516,2.032" transform="translate(344.537 273.123)"/></svg>