<svg xmlns="http://www.w3.org/2000/svg" xmlns:xlink="http://www.w3.org/1999/xlink" width="133.118" height="129.794" viewBox="0 0 133.118 129.794"><defs><style>.a{fill:none;}.b,.k{fill:#c8b3ff;}.b,.e{opacity:0.2;}.c{fill:#5b2ad0;}.d{fill:#535461;}.f{clip-path:url(#a);}.g{fill:#f5f5f5;}.h{fill:#fff;}.i{fill:#403952;}.j{fill:#ffb9b9;}.l{opacity:0.102;}.m{clip-path:url(#b);}.n{fill:#b96b6b;}.o{clip-path:url(#c);}.p{clip-path:url(#d);}.q{clip-path:url(#e);}.r{clip-path:url(#f);}.s{clip-path:url(#g);}.t{clip-path:url(#h);}.u{clip-path:url(#i);}.v{clip-path:url(#j);}.w{clip-path:url(#k);}.x{clip-path:url(#l);}.y{clip-path:url(#m);}.z{clip-path:url(#n);}.aa{clip-path:url(#o);}.ab{clip-path:url(#p);}.ac{clip-path:url(#q);}.ad{clip-path:url(#r);}.ae{clip-path:url(#s);}.af{clip-path:url(#t);}.ag{clip-path:url(#u);}.ah{clip-path:url(#v);}.ai{clip-path:url(#w);}.aj{clip-path:url(#x);}.ak{clip-path:url(#y);}.al{clip-path:url(#z);}.am{clip-path:url(#aa);}.an{clip-path:url(#ab);}.ao{clip-path:url(#ac);}.ap{clip-path:url(#ad);}.aq{clip-path:url(#ae);}.ar{clip-path:url(#af);}.as{clip-path:url(#ag);}.at{clip-path:url(#ah);}.au{clip-path:url(#ai);}.av{clip-path:url(#aj);}.aw{clip-path:url(#ak);}.ax{clip-path:url(#al);}.ay{clip-path:url(#am);}.az{clip-path:url(#an);}.ba{clip-path:url(#ao);}.bb{clip-path:url(#ap);}.bc{clip-path:url(#aq);}.bd{clip-path:url(#ar);}.be{clip-path:url(#as);}.bf{clip-path:url(#at);}.bg{clip-path:url(#au);}.bh{clip-path:url(#av);}.bi{clip-path:url(#aw);}.bj{clip-path:url(#ax);}.bk{clip-path:url(#ay);}.bl{clip-path:url(#az);}.bm{clip-path:url(#ba);}.bn{clip-path:url(#bb);}.bo{clip-path:url(#bc);}.bp{clip-path:url(#bd);}.bq{clip-path:url(#be);}.br{clip-path:url(#bf);}.bs{clip-path:url(#bg);}.bt{clip-path:url(#bh);}.bu{clip-path:url(#bi);}.bv{clip-path:url(#bj);}.bw{clip-path:url(#bk);}.bx{clip-path:url(#bl);}.by{clip-path:url(#bm);}.bz{clip-path:url(#bn);}.ca{clip-path:url(#bo);}.cb{clip-path:url(#bp);}.cc{clip-path:url(#bq);}.cd{clip-path:url(#br);}.ce{clip-path:url(#bs);}.cf{clip-path:url(#bt);}.cg{clip-path:url(#bu);}.ch{clip-path:url(#bv);}.ci{fill:#e0e0e0;}</style><clipPath id="a"><rect class="a" width="23.503" height="18.4" transform="translate(903.911 1869.036)"/></clipPath><clipPath id="b"><rect class="a" width="40.004" height="49.91" transform="translate(922.796 1842.536)"/></clipPath><clipPath id="c"><rect class="a" width="45.847" height="3.17" transform="translate(982.482 1822.156)"/></clipPath><clipPath id="d"><rect class="a" width="45.847" height="3.18" transform="translate(982.482 1835.846)"/></clipPath><clipPath id="e"><rect class="a" width="45.847" height="3.17" transform="translate(982.482 1850.126)"/></clipPath><clipPath id="f"><rect class="a" width="2.883" height="8.22" transform="translate(986.519 1813.936)"/></clipPath><clipPath id="g"><rect class="a" width="2.883" height="0.57" transform="translate(986.519 1815.236)"/></clipPath><clipPath id="h"><rect class="a" width="2.883" height="0.57" transform="translate(986.519 1819.706)"/></clipPath><clipPath id="i"><rect class="a" width="2.884" height="8.22" transform="translate(990.844 1813.936)"/></clipPath><clipPath id="j"><rect class="a" width="2.884" height="0.57" transform="translate(990.844 1815.236)"/></clipPath><clipPath id="k"><rect class="a" width="2.884" height="0.57" transform="translate(990.844 1819.706)"/></clipPath><clipPath id="l"><rect class="a" width="2.884" height="8.22" transform="translate(995.17 1813.936)"/></clipPath><clipPath id="m"><rect class="a" width="2.884" height="0.57" transform="translate(995.17 1815.236)"/></clipPath><clipPath id="n"><rect class="a" width="2.884" height="0.57" transform="translate(995.17 1819.706)"/></clipPath><clipPath id="o"><rect class="a" width="2.884" height="8.22" transform="translate(999.496 1813.936)"/></clipPath><clipPath id="p"><rect class="a" width="2.884" height="0.57" transform="translate(999.496 1815.236)"/></clipPath><clipPath id="q"><rect class="a" width="2.884" height="0.57" transform="translate(999.496 1819.706)"/></clipPath><clipPath id="r"><rect class="a" width="2.887" height="8.22" transform="translate(1003.822 1813.936)"/></clipPath><clipPath id="s"><rect class="a" width="2.887" height="0.57" transform="translate(1003.822 1815.236)"/></clipPath><clipPath id="t"><rect class="a" width="2.887" height="0.57" transform="translate(1003.822 1819.706)"/></clipPath><clipPath id="u"><rect class="a" width="2.88" height="8.22" transform="translate(1008.149 1813.936)"/></clipPath><clipPath id="v"><rect class="a" width="2.88" height="0.57" transform="translate(1008.149 1815.236)"/></clipPath><clipPath id="w"><rect class="a" width="2.88" height="0.57" transform="translate(1008.149 1819.706)"/></clipPath><clipPath id="x"><rect class="a" width="2.89" height="8.22" transform="translate(1012.469 1813.936)"/></clipPath><clipPath id="y"><rect class="a" width="2.89" height="0.57" transform="translate(1012.469 1815.236)"/></clipPath><clipPath id="z"><rect class="a" width="2.89" height="0.57" transform="translate(1012.469 1819.706)"/></clipPath><clipPath id="aa"><rect class="a" width="6.27" height="8.64" transform="translate(1011.069 1841.686)"/></clipPath><clipPath id="ab"><rect class="a" width="2.83" height="1.81" transform="translate(1011.659 1842.846)"/></clipPath><clipPath id="ac"><rect class="a" width="2.83" height="1.81" transform="translate(1013.659 1846.846)"/></clipPath><clipPath id="ad"><rect class="a" width="2.883" height="8.22" transform="translate(986.519 1827.776)"/></clipPath><clipPath id="ae"><rect class="a" width="2.883" height="0.57" transform="translate(986.519 1829.076)"/></clipPath><clipPath id="af"><rect class="a" width="2.883" height="0.57" transform="translate(986.519 1833.546)"/></clipPath><clipPath id="ag"><rect class="a" width="2.884" height="8.22" transform="translate(990.844 1827.776)"/></clipPath><clipPath id="ah"><rect class="a" width="2.884" height="0.57" transform="translate(990.844 1829.076)"/></clipPath><clipPath id="ai"><rect class="a" width="2.884" height="0.57" transform="translate(990.844 1833.546)"/></clipPath><clipPath id="aj"><rect class="a" width="2.884" height="8.22" transform="translate(995.17 1827.776)"/></clipPath><clipPath id="ak"><rect class="a" width="2.884" height="0.57" transform="translate(995.17 1829.076)"/></clipPath><clipPath id="al"><rect class="a" width="2.884" height="0.57" transform="translate(995.17 1833.546)"/></clipPath><clipPath id="am"><rect class="a" width="2.89" height="8.22" transform="translate(1013.189 1827.776)"/></clipPath><clipPath id="an"><rect class="a" width="2.89" height="0.57" transform="translate(1013.189 1829.076)"/></clipPath><clipPath id="ao"><rect class="a" width="2.89" height="0.57" transform="translate(1013.189 1833.546)"/></clipPath><clipPath id="ap"><rect class="a" width="2.88" height="8.22" transform="translate(1017.519 1827.776)"/></clipPath><clipPath id="aq"><rect class="a" width="2.88" height="0.57" transform="translate(1017.519 1829.076)"/></clipPath><clipPath id="ar"><rect class="a" width="2.88" height="0.57" transform="translate(1017.519 1833.546)"/></clipPath><clipPath id="as"><rect class="a" width="2.88" height="8.22" transform="translate(1021.849 1827.776)"/></clipPath><clipPath id="at"><rect class="a" width="2.88" height="0.57" transform="translate(1021.849 1829.076)"/></clipPath><clipPath id="au"><rect class="a" width="2.88" height="0.57" transform="translate(1021.849 1833.546)"/></clipPath><clipPath id="av"><rect class="a" width="2.883" height="8.22" transform="translate(986.519 1841.906)"/></clipPath><clipPath id="aw"><rect class="a" width="2.883" height="0.57" transform="translate(986.519 1843.206)"/></clipPath><clipPath id="ax"><rect class="a" width="2.883" height="0.57" transform="translate(986.519 1847.676)"/></clipPath><clipPath id="ay"><rect class="a" width="2.884" height="8.22" transform="translate(990.844 1841.906)"/></clipPath><clipPath id="az"><rect class="a" width="2.884" height="0.57" transform="translate(990.844 1843.206)"/></clipPath><clipPath id="ba"><rect class="a" width="2.884" height="0.57" transform="translate(990.844 1847.676)"/></clipPath><clipPath id="bb"><rect class="a" width="2.884" height="8.22" transform="translate(995.17 1841.906)"/></clipPath><clipPath id="bc"><rect class="a" width="2.884" height="0.57" transform="translate(995.17 1843.206)"/></clipPath><clipPath id="bd"><rect class="a" width="2.884" height="0.57" transform="translate(995.17 1847.676)"/></clipPath><clipPath id="be"><rect class="a" width="2.884" height="8.22" transform="translate(999.496 1841.906)"/></clipPath><clipPath id="bf"><rect class="a" width="2.884" height="0.57" transform="translate(999.496 1843.206)"/></clipPath><clipPath id="bg"><rect class="a" width="2.884" height="0.57" transform="translate(999.496 1847.676)"/></clipPath><clipPath id="bh"><rect class="a" width="2.887" height="8.22" transform="translate(1003.822 1841.906)"/></clipPath><clipPath id="bi"><rect class="a" width="2.887" height="0.57" transform="translate(1003.822 1843.206)"/></clipPath><clipPath id="bj"><rect class="a" width="2.887" height="0.57" transform="translate(1003.822 1847.676)"/></clipPath><clipPath id="bk"><rect class="a" width="2.88" height="8.22" transform="translate(1008.149 1841.906)"/></clipPath><clipPath id="bl"><rect class="a" width="2.88" height="0.57" transform="translate(1008.149 1843.206)"/></clipPath><clipPath id="bm"><rect class="a" width="2.88" height="0.57" transform="translate(1008.149 1847.676)"/></clipPath><clipPath id="bn"><rect class="a" width="2.88" height="8.03" transform="translate(1016.799 1814.116)"/></clipPath><clipPath id="bo"><rect class="a" width="2.88" height="0.57" transform="translate(1016.799 1815.236)"/></clipPath><clipPath id="bp"><rect class="a" width="2.88" height="0.57" transform="translate(1016.799 1819.706)"/></clipPath><clipPath id="bq"><rect class="a" width="2.88" height="7.18" transform="translate(1021.129 1814.976)"/></clipPath><clipPath id="br"><rect class="a" width="2.88" height="0.57" transform="translate(1021.129 1819.706)"/></clipPath><clipPath id="bs"><rect class="a" width="10.765" height="10.77" transform="translate(913.901 1807.296)"/></clipPath><clipPath id="bt"><rect class="a" width="9.136" height="9.13" transform="translate(914.715 1808.116)"/></clipPath><clipPath id="bu"><rect class="a" width="2.665" height="3.64" transform="translate(919.011 1809.006)"/></clipPath><clipPath id="bv"><rect class="a" width="2.21" height="1.8" transform="translate(919.345 1812.386)"/></clipPath></defs><g transform="translate(-14 -15.997)"><g transform="translate(-882 -1811.096)"><path class="b" d="M1037.92,1765.22c16.232,27.347,1.672,71.076-28.562,89.022s-74.2,3.849-90.429-23.5-4.882-64.064,25.351-82.011S1021.69,1737.88,1037.92,1765.22Z" transform="translate(-15.527 88.241)"/><g transform="translate(0.491 56)"><path class="c" d="M916.087,1841.47a16.33,16.33,0,0,1,2.977,16.984c-3.859,10.149,6.616,27.013,6.616,27.013s-.114-.015-.321-.054a19.906,19.906,0,0,1-13.209-30.468c2.9-4.435,5.279-9.638,3.937-13.475"/><path class="d" d="M925.42,1886.43a12,12,0,0,1-5.7-3.6,20.766,20.766,0,0,1-3.78-6.1c-2.945-7.02-3.262-16.044-.722-20.544a14.678,14.678,0,0,0,1.339-9.465,20.917,20.917,0,0,0-1.377-4.842l1.817-.835a22.506,22.506,0,0,1,1.525,5.3,19.623,19.623,0,0,1,.189,5.174,14.437,14.437,0,0,1-1.751,5.65c-2.232,3.954-1.862,12.382.825,18.787,1.933,4.609,4.83,7.641,8.157,8.535Z"/><g class="e"><g class="f"><path class="g" d="M903.911,1869.13s7.8-1.242,8.507,5.749,15,7.959,15,7.959-.094.064-.269.18c-11.789,7.742-23.067,4.928-21.367-5.355.632-3.825.581-7.667-1.867-8.533"/></g></g><path class="d" d="M920.592,1885.751q-.321,0-.643-.015a13.82,13.82,0,0,1-6.779-2.128,11.391,11.391,0,0,1-3.541-3.457,6.885,6.885,0,0,1-1.157-4.276,4.757,4.757,0,0,0-2.124-4.542,8.279,8.279,0,0,0-2.654-1.228l.431-1.953a10.208,10.208,0,0,1,3.326,1.512,6.729,6.729,0,0,1,3.012,6.391c-.18,1.989,1.3,4.291,3.779,5.864a11.978,11.978,0,0,0,12.674.054l1.009,1.727A14.38,14.38,0,0,1,920.592,1885.751Z"/><path class="h" d="M948.276,1895.92s-5.3.346-5.374,4.647c-.01.576,5.522.743,12.09-2.788s7.015-3.9,7.015-3.9-2.538-4.088-4.326-4.645-9.405,6.69-9.405,6.69"/><path class="i" d="M917.236,1879.46s-6.056,5.048,5.191,12.113a36.948,36.948,0,0,0,22.061,5.768s11.731-1.39,13.508-6.9-8.749-10.12-8.749-10.12-11.535,0-16.727-3.315-15.284,2.45-15.284,2.45"/><path class="j" d="M947.371,1850.48l-18.312-12.544s8.784-5.956,9.539-11.28a4.331,4.331,0,0,0-.6-2.994c-3.6-5.768,12.688,0,12.688,0a34.128,34.128,0,0,0,.614,4.469c.708,3.511,2.2,8.187,5.3,10.526,5.334,4.037-9.229,11.823-9.229,11.823"/><path class="j" d="M945.93,1807.95a10.652,10.652,0,1,1-2.082.2,10.6,10.6,0,0,1,2.082-.2"/><path class="k" d="M952.563,1832.17s-2.163,12.689-5.768,11.969-14.851-13.41-14.851-13.41-11.68,3.892-9.806,13.41,3.749,17.59-.143,20.619-6.345,17.157-6.345,17.157,12.4-5.19,18.889-3.171,13.121,1.008,14.708-.866a52.976,52.976,0,0,0,3.892-5.911s-3.316-4.9-1.73-7.354,3.6-2.595,4.758-9.516,10.238-9.373,8.507-13.266-5.047-9.661-12.111-9.661"/><path class="j" d="M961.214,1884.22s5.767-1.442,7.786.288,8.795,5.335,6.488,6.776-16.294-.432-16.294-.432Z"/><path class="k" d="M963.665,1841.11s1.3.145,2.6,6.922S972.6,1861.3,972.6,1861.3a31.427,31.427,0,0,1,4.615,8.8c1.729,5.191,9.444,12.04,12.183,12.329,0,0-5.262,5.262-4.686,6.7s-.576,0-.576,0-7.21-2.741-8.8-7.21-8.507-11.679-8.507-11.679-9.229-17.88-9.661-20.764,6.489-8.363,6.489-8.363"/><g class="l"><g class="m"><path d="M934.828,1845.72s4.758,17.447,6.488,19.61,15.14,19.9,21.485,18.744c0,0-1.875,8.075-3.173,8.364,0,0-13.121-12.978-17.591-12.833,0,0-8.219-6.778-9.084-10.094s-7.786-14.13-7.786-14.13-3.461-7.642-2.019-10.959,9.084-1.874,11.68,1.3"/></g></g><path class="n" d="M953.38,1808.36a3.092,3.092,0,0,0-2.521-2.811c-.9-.144-1.911.112-2.686-.375a4.851,4.851,0,0,1-.884-.865,6.234,6.234,0,0,0-4.39-1.777,15.737,15.737,0,0,0-4.776.793c-3.108.9-6.393,2.209-8.047,4.988-2.514,4.233-.2,9.937-2.183,14.44-.866,1.966-2.515,3.573-3.051,5.655-.721,2.781.7,5.6,1.8,8.259a39.438,39.438,0,0,1,2.226,7.382,16.555,16.555,0,0,1,.189,6.777,7.261,7.261,0,0,0-.383,2.941c.288,1.48,1.719,2.413,3.019,3.173l.338.2a16.18,16.18,0,0,0,5.95,2.486,6.172,6.172,0,0,0,3.893-.7,4.258,4.258,0,0,0,2.13-3.238c.11-1.515-.734-2.934-.916-4.444a1.348,1.348,0,0,1,.051-.681,1.663,1.663,0,0,1,.654-.653,12.1,12.1,0,0,0,4.863-11.835c-.557-3.019-2.288-6.022-1.45-8.976.463-1.632,1.656-2.954,2.325-4.512a7.582,7.582,0,0,0,.248-5.252c-.382-1.191-1.075-2.38-.836-3.6.419-2.175,3.316-2.868,4.41-4.794a3.421,3.421,0,0,0-1.038-4.372"/><path class="c" d="M963.189,1899.98a1.684,1.684,0,0,0,.553-.833.741.741,0,0,0-.387-.85,1.083,1.083,0,0,0-1.02.36,1.36,1.36,0,0,1-.995.478,1.507,1.507,0,0,0,.468-1.414.59.59,0,0,0-.13-.289c-.2-.21-.553-.119-.79.047a2.938,2.938,0,0,0-.963,2.462,4.723,4.723,0,0,1-.014-1.009,1.041,1.041,0,0,0-.381-.9,1.151,1.151,0,0,0-.577-.138,1.2,1.2,0,0,0-.943.269.926.926,0,0,0,.037,1.153,3.738,3.738,0,0,0,.977.781,2.17,2.17,0,0,1,.7.665.572.572,0,0,1,.052.118h2.11a5.907,5.907,0,0,0,1.306-.9"/><g class="l"><g class="o"><rect class="c" width="45.853" height="3.172" transform="translate(982.482 1822.152)"/></g></g><g class="l"><g class="p"><rect class="c" width="45.853" height="3.172" transform="translate(982.482 1835.85)"/></g></g><g class="l"><g class="q"><rect class="c" width="45.853" height="3.172" transform="translate(982.482 1850.125)"/></g></g><g class="l"><g class="r"><rect class="c" width="2.884" height="8.219" transform="translate(986.519 1813.933)"/></g></g><g class="l"><g class="s"><rect class="c" width="2.884" height="0.576" transform="translate(986.519 1815.231)"/></g></g><g class="l"><g class="t"><rect class="c" width="2.884" height="0.576" transform="translate(986.519 1819.701)"/></g></g><g class="l"><g class="u"><rect class="c" width="2.883" height="8.219" transform="translate(990.845 1813.933)"/></g></g><g class="l"><g class="v"><rect class="c" width="2.883" height="0.576" transform="translate(990.845 1815.231)"/></g></g><g class="l"><g class="w"><rect class="c" width="2.883" height="0.576" transform="translate(990.845 1819.701)"/></g></g><g class="l"><g class="x"><rect class="c" width="2.884" height="8.219" transform="translate(995.17 1813.933)"/></g></g><g class="l"><g class="y"><rect class="c" width="2.884" height="0.576" transform="translate(995.17 1815.231)"/></g></g><g class="l"><g class="z"><rect class="c" width="2.884" height="0.576" transform="translate(995.17 1819.701)"/></g></g><g class="l"><g class="aa"><rect class="c" width="2.883" height="8.219" transform="translate(999.496 1813.933)"/></g></g><g class="l"><g class="ab"><rect class="c" width="2.883" height="0.576" transform="translate(999.496 1815.231)"/></g></g><g class="l"><g class="ac"><rect class="c" width="2.883" height="0.576" transform="translate(999.496 1819.701)"/></g></g><g class="l"><g class="ad"><rect class="c" width="2.884" height="8.219" transform="translate(1003.821 1813.933)"/></g></g><g class="l"><g class="ae"><rect class="c" width="2.884" height="0.576" transform="translate(1003.821 1815.231)"/></g></g><g class="l"><g class="af"><rect class="c" width="2.884" height="0.576" transform="translate(1003.821 1819.701)"/></g></g><g class="l"><g class="ag"><rect class="c" width="2.883" height="8.219" transform="translate(1008.148 1813.933)"/></g></g><g class="l"><g class="ah"><rect class="c" width="2.883" height="0.576" transform="translate(1008.148 1815.231)"/></g></g><g class="l"><g class="ai"><rect class="c" width="2.883" height="0.576" transform="translate(1008.148 1819.701)"/></g></g><g class="l"><g class="aj"><rect class="c" width="2.884" height="8.219" transform="translate(1012.473 1813.933)"/></g></g><g class="l"><g class="ak"><rect class="c" width="2.884" height="0.576" transform="translate(1012.473 1815.231)"/></g></g><g class="l"><g class="al"><rect class="c" width="2.884" height="0.576" transform="translate(1012.473 1819.701)"/></g></g><g class="l"><g class="am"><rect class="c" width="2.884" height="8.219" transform="matrix(0.894, -0.448, 0.448, 0.894, 1011.073, 1842.981)"/></g></g><g class="l"><g class="an"><rect class="c" width="2.884" height="0.577" transform="translate(1011.655 1844.141) rotate(-26.636)"/></g></g><g class="l"><g class="ao"><rect class="c" width="2.884" height="0.577" transform="translate(1013.657 1848.137) rotate(-26.645)"/></g></g><g class="l"><g class="ap"><rect class="c" width="2.884" height="8.219" transform="translate(986.519 1827.775)"/></g></g><g class="l"><g class="aq"><rect class="c" width="2.884" height="0.577" transform="translate(986.519 1829.073)"/></g></g><g class="l"><g class="ar"><rect class="c" width="2.884" height="0.577" transform="translate(986.519 1833.543)"/></g></g><g class="l"><g class="as"><rect class="c" width="2.883" height="8.219" transform="translate(990.845 1827.775)"/></g></g><g class="l"><g class="at"><rect class="c" width="2.883" height="0.577" transform="translate(990.845 1829.073)"/></g></g><g class="l"><g class="au"><rect class="c" width="2.883" height="0.577" transform="translate(990.845 1833.543)"/></g></g><g class="l"><g class="av"><rect class="c" width="2.884" height="8.219" transform="translate(995.17 1827.775)"/></g></g><g class="l"><g class="aw"><rect class="c" width="2.884" height="0.577" transform="translate(995.17 1829.073)"/></g></g><g class="l"><g class="ax"><rect class="c" width="2.884" height="0.577" transform="translate(995.17 1833.543)"/></g></g><g class="l"><g class="ay"><rect class="c" width="2.884" height="8.219" transform="translate(1013.194 1827.775)"/></g></g><g class="l"><g class="az"><rect class="c" width="2.884" height="0.577" transform="translate(1013.194 1829.073)"/></g></g><g class="l"><g class="ba"><rect class="c" width="2.884" height="0.577" transform="translate(1013.194 1833.543)"/></g></g><g class="l"><g class="bb"><rect class="c" width="2.884" height="8.219" transform="translate(1017.52 1827.775)"/></g></g><g class="l"><g class="bc"><rect class="c" width="2.884" height="0.577" transform="translate(1017.52 1829.073)"/></g></g><g class="l"><g class="bd"><rect class="c" width="2.884" height="0.577" transform="translate(1017.52 1833.543)"/></g></g><g class="l"><g class="be"><rect class="c" width="2.884" height="8.219" transform="translate(1021.845 1827.775)"/></g></g><g class="l"><g class="bf"><rect class="c" width="2.884" height="0.577" transform="translate(1021.845 1829.073)"/></g></g><g class="l"><g class="bg"><rect class="c" width="2.884" height="0.577" transform="translate(1021.845 1833.543)"/></g></g><g class="l"><g class="bh"><rect class="c" width="2.884" height="8.219" transform="translate(986.519 1841.906)"/></g></g><g class="l"><g class="bi"><rect class="c" width="2.884" height="0.576" transform="translate(986.519 1843.204)"/></g></g><g class="l"><g class="bj"><rect class="c" width="2.884" height="0.576" transform="translate(986.519 1847.673)"/></g></g><g class="l"><g class="bk"><rect class="c" width="2.883" height="8.219" transform="translate(990.845 1841.906)"/></g></g><g class="l"><g class="bl"><rect class="c" width="2.883" height="0.576" transform="translate(990.845 1843.204)"/></g></g><g class="l"><g class="bm"><rect class="c" width="2.883" height="0.576" transform="translate(990.845 1847.673)"/></g></g><g class="l"><g class="bn"><rect class="c" width="2.884" height="8.219" transform="translate(995.17 1841.906)"/></g></g><g class="l"><g class="bo"><rect class="c" width="2.884" height="0.576" transform="translate(995.17 1843.204)"/></g></g><g class="l"><g class="bp"><rect class="c" width="2.884" height="0.576" transform="translate(995.17 1847.673)"/></g></g><g class="l"><g class="bq"><rect class="c" width="2.883" height="8.219" transform="translate(999.496 1841.906)"/></g></g><g class="l"><g class="br"><rect class="c" width="2.883" height="0.576" transform="translate(999.496 1843.204)"/></g></g><g class="l"><g class="bs"><rect class="c" width="2.883" height="0.576" transform="translate(999.496 1847.673)"/></g></g><g class="l"><g class="bt"><rect class="c" width="2.884" height="8.219" transform="translate(1003.821 1841.906)"/></g></g><g class="l"><g class="bu"><rect class="c" width="2.884" height="0.576" transform="translate(1003.821 1843.204)"/></g></g><g class="l"><g class="bv"><rect class="c" width="2.884" height="0.576" transform="translate(1003.821 1847.673)"/></g></g><g class="l"><g class="bw"><rect class="c" width="2.883" height="8.219" transform="translate(1008.148 1841.906)"/></g></g><g class="l"><g class="bx"><rect class="c" width="2.883" height="0.576" transform="translate(1008.148 1843.204)"/></g></g><g class="l"><g class="by"><rect class="c" width="2.883" height="0.576" transform="translate(1008.148 1847.673)"/></g></g><g class="l"><g class="bz"><path class="c" d="M1019.68,1814.66v7.487h-2.88v-8.035q1.447.255,2.883.548"/></g></g><g class="l"><g class="ca"><rect class="c" width="2.883" height="0.576" transform="translate(1016.799 1815.231)"/></g></g><g class="l"><g class="cb"><rect class="c" width="2.883" height="0.576" transform="translate(1016.799 1819.701)"/></g></g><g class="l"><g class="cc"><path class="c" d="M1024.01,1815.66v6.489h-2.884v-7.18c.375.082.748.168,1.122.256q.885.209,1.762.435"/></g></g><g class="l"><g class="cd"><rect class="c" width="2.884" height="0.576" transform="translate(1021.124 1819.701)"/></g></g><g class="l"><g class="ce"><path class="c" d="M919.284,1807.3a5.379,5.379,0,0,1,3.806,9.183,5.362,5.362,0,0,1-2.756,1.475,5.352,5.352,0,0,1-2.1,0,5.421,5.421,0,0,1-1.01-.306,5.352,5.352,0,0,1-.93-.5,5.463,5.463,0,0,1-.816-.669,5.373,5.373,0,0,1,3.806-9.183"/></g></g><g class="l"><g class="cf"><path class="c" d="M919.284,1808.11a4.494,4.494,0,0,1,.891.088,4.4,4.4,0,0,1,.857.26,4.563,4.563,0,1,1-5.973,2.471,4.652,4.652,0,0,1,.423-.79,4.569,4.569,0,0,1,2.05-1.681,4.421,4.421,0,0,1,.856-.26,4.532,4.532,0,0,1,.892-.088"/></g></g><g class="l"><g class="cg"><path class="c" d="M.434,3.391l-.868-.5,1.8-3.143.868.5Z" transform="translate(919.445 1809.257)"/></g></g><g class="l"><g class="ch"><path class="c" d="M1.512,1.361-.233.442.233-.442,1.978.477Z" transform="translate(919.578 1812.824)"/></g></g><path class="d" d="M965.649,1893.72a1.175,1.175,0,0,1,.091-.457,1.2,1.2,0,0,1,.26-.389,1.215,1.215,0,0,1,.845-.35h14.54a1.2,1.2,0,0,1,1.106.739,1.193,1.193,0,0,1-.26,1.3,1.17,1.17,0,0,1-.388.26,1.191,1.191,0,0,1-.458.09h-14.54a1.192,1.192,0,0,1-1.2-1.2"/><path class="d" d="M977.258,1880.67A14.279,14.279,0,0,1,983.6,1868.8a14.115,14.115,0,0,1,2.468-1.319,14.26,14.26,0,0,1,5.465-1.087h11.3a14.28,14.28,0,0,1,0,28.559h-11.3a14.272,14.272,0,0,1-14.279-14.281"/><path class="ci" d="M999.052,1879.18a1.291,1.291,0,1,1-1.189.8,1.288,1.288,0,0,1,1.189-.8"/></g></g></g></svg>