<svg xmlns="http://www.w3.org/2000/svg" xmlns:xlink="http://www.w3.org/1999/xlink" width="112" height="117.426" viewBox="0 0 112 117.426"><defs><style>.a{fill:none;}.b{fill:#c8b3ff;opacity:0.2;}.c{fill:#a0616a;}.d{fill:#403952;}.e{fill:#5125b8;}.f{fill:#5b2ad0;}.g{fill:#f0f1ff;}.h{opacity:0.302;}.i{clip-path:url(#a);}.j{clip-path:url(#b);}</style><clipPath id="a"><rect class="a" width="52.958" height="10.55" transform="translate(285.874 1850.343)"/></clipPath><clipPath id="b"><rect class="a" width="52.958" height="10.55" transform="translate(287.762 1861.693)"/></clipPath></defs><g transform="translate(-24.001 -21.998)"><g transform="translate(-232 -1820.345)"><path class="b" d="M317.677,1770.54c14.741,24.835,4.115,63.005-20.72,77.746s-62.476.586-77.218-24.249a52.293,52.293,0,0,1,18.276-71.659C262.85,1737.63,302.936,1745.7,317.677,1770.54Z" transform="translate(43.595 98.049)"/><g transform="translate(0.491 56)"><path class="c" d="M318.971,1874.35l4.491,18.108,4.49-.724-4.49-20.717Z"/><path class="d" d="M299.631,1791.7a8.406,8.406,0,1,1-3.216.64,8.368,8.368,0,0,1,3.216-.64"/><path class="c" d="M294.633,1830.46s-1.014,2.752-2.753,3.187-14.632,3.477-14.632,3.477-11.3.289-7.823,2.752,9.127,0,9.127,0,16.516-2.028,17.819-4.2a29.163,29.163,0,0,0,2.173-4.636Z"/><path class="c" d="M297.674,1807.57s3.622,5.507,3.332,6.81a1.78,1.78,0,0,1-.144,1.449c-.435.58-.291,4.056-.291,4.056l1.45,2.029,1.882-6.23.87-6.664s-1.955-2.681-1.666-3.984-5.433,2.534-5.433,2.534"/><path class="d" d="M325.055,1891.31s-2.558.864-2.22,1.446.337,4.2-.822,5.507-4.057,5.36-.725,5.506a13.178,13.178,0,0,0,6.664-2.028v-3.767l.581,3.477h.579v-3.912s1.449-2.462.58-3.912-1.437-2.711-2.53-2.587-2.107.27-2.107.27"/><path class="d" d="M301.731,1892.75s-1.448-.145-1.883,1.884-4.346,4.925-5.8,5.359-1.449,1.884.435,2.174,6.664.435,7.823-1.159a14.174,14.174,0,0,1,2.752-2.753l-.725,4.057h1.3s1.158-3.912,2.317-5.216-2.317-4.346-2.9-4.346Z"/><path class="e" d="M300.137,1818.29s-8.258,13.474-7.243,13.763,10.431,3.332,10.865,2.174.435-6.519.435-6.519Z"/><path class="c" d="M321.579,1815.1l18.688,9.562s10.577,2.751,8.258,4.925-9.851-1.883-9.851-1.883l-20.717-9.417Z"/><path class="e" d="M309.12,1838.86s-8.113,21.731-8.113,31.293-3.042,20.428-.724,21.441,14.053,1.159,14.342,0-1.448-48.242-2.317-50.126a5.731,5.731,0,0,0-3.188-2.608"/><path class="c" d="M299.558,1797.72a5.369,5.369,0,0,1,4.957,7.414,5.44,5.44,0,0,1-.5.927,5.362,5.362,0,1,1-4.457-8.335"/><path class="f" d="M301.152,1819.3l-.388-3.27a6.59,6.59,0,0,0-1.206,2.98c0,1.3-.724,5.939,2.319,8.837s3.621,3.477,3.766,4.057.869.579.869.579l4.2,16.95s1.3,45.055,3.332,45.636,8.257,0,8.692-.725-.725-19.992-.725-19.992,3.188,17.094,4.347,17.094,1.883-2.462,1.593-2.608-2.028-11.3-2.752-14.776-.435-32.887-.435-32.887,2.318-3.767-5.65-11.154c0,0-5.07-14.778-5.36-14.778s-5.94-7.967-5.94-7.967-3.187,0-3.767,1.882-2.9,10.142-2.9,10.142"/><path class="f" d="M306.078,1808.44l1.738-1.159s7.243,4.346,12.315,4.636,4.925,3.187,2.9,5.214-10,8.983-10.286,7.245-6.664-15.936-6.664-15.936"/><path class="d" d="M299.631,1794.31a9.415,9.415,0,0,1,1.131.067,8.829,8.829,0,0,1,1.087.2,7.911,7.911,0,0,1,1,.321,6.2,6.2,0,0,1,.878.433,4.642,4.642,0,0,1,.72.527,3.462,3.462,0,0,1,.536.6,2.62,2.62,0,0,1,.33.653,2.126,2.126,0,0,1,0,1.356,2.6,2.6,0,0,1-.33.653,3.471,3.471,0,0,1-.536.6,4.774,4.774,0,0,1-.72.527,6.187,6.187,0,0,1-.878.432,7.478,7.478,0,0,1-1,.321,8.9,8.9,0,0,1-1.087.2,9.729,9.729,0,0,1-2.262,0,8.852,8.852,0,0,1-1.087-.2,7.5,7.5,0,0,1-1-.321,6.171,6.171,0,0,1-.878-.432,4.777,4.777,0,0,1-.72-.527,3.47,3.47,0,0,1-.536-.6,2.6,2.6,0,0,1-.33-.653,2.126,2.126,0,0,1,0-1.356,2.62,2.62,0,0,1,.33-.653,3.461,3.461,0,0,1,.536-.6,4.649,4.649,0,0,1,.72-.527,6.158,6.158,0,0,1,.878-.433,7.931,7.931,0,0,1,1-.321,8.805,8.805,0,0,1,1.087-.2,9.415,9.415,0,0,1,1.131-.067"/><path class="d" d="M300.21,1788.23a3.477,3.477,0,1,1-3.477,3.477,3.476,3.476,0,0,1,3.477-3.477"/><path class="d" d="M295.574,1789.82a3.48,3.48,0,0,1,3.115-3.459c-.121-.011-.241-.018-.362-.018a3.477,3.477,0,1,0,0,6.954,3.321,3.321,0,0,0,.362-.019,3.477,3.477,0,0,1-3.115-3.458"/><rect class="g" width="77.667" height="45.357" transform="translate(270.296 1839.202) rotate(-9.547)"/><g class="h"><g class="i"><path class="f" d="M337.958,1852.42l-50.865,8.462a1.047,1.047,0,0,1-.344-2.065l50.865-8.46a1.046,1.046,0,1,1,.344,2.063"/></g></g><g class="h"><g class="j"><path class="f" d="M339.845,1863.77l-50.865,8.461a1.047,1.047,0,0,1-.343-2.065l50.865-8.46a1.046,1.046,0,0,1,.343,2.064"/></g></g><path class="f" d="M285.768,1847.04a.767.767,0,0,0,.407.591,2.945,2.945,0,0,0,.961.235l-.357-2.02q-1.172.282-1.011,1.194m3.747,3.52a.768.768,0,0,0-.466-.6,3.943,3.943,0,0,0-1.05-.265l.353,2.008c.877-.181,1.265-.56,1.163-1.143m.023-4.314a1.255,1.255,0,0,0-.317-.162,5.13,5.13,0,0,0-.533-.17,4.957,4.957,0,0,0-.659-.128,3.544,3.544,0,0,0-.723-.02l.38,2.158.326.019q.678.06,1.244.166a3.28,3.28,0,0,1,.986.341,2.093,2.093,0,0,1,.694.617,2.421,2.421,0,0,1,.381.994,2.636,2.636,0,0,1-.036,1.216,2.249,2.249,0,0,1-.52.914,2.972,2.972,0,0,1-.891.64,5.165,5.165,0,0,1-1.135.387l.242,1.372-.748.132-.244-1.385a6.571,6.571,0,0,1-1.765-.055,6.25,6.25,0,0,1-1.639-.5l.5-1.619a2.372,2.372,0,0,0,.39.2,4.061,4.061,0,0,0,.642.215,7.422,7.422,0,0,0,.813.159,4.343,4.343,0,0,0,.9.034l-.378-2.145a2.32,2.32,0,0,1-.234-.017c-.078-.008-.157-.017-.237-.029a7.993,7.993,0,0,1-1.171-.186,2.969,2.969,0,0,1-.866-.348,1.866,1.866,0,0,1-.582-.567,2.258,2.258,0,0,1-.31-.851,2.754,2.754,0,0,1,.021-1.155,2.544,2.544,0,0,1,.45-.948,2.843,2.843,0,0,1,.808-.709,4.179,4.179,0,0,1,1.078-.447l-.224-1.272.749-.132.221,1.26a5.224,5.224,0,0,1,1.576.069,6.159,6.159,0,0,1,1.328.422Z"/></g></g></g></svg>