<svg xmlns="http://www.w3.org/2000/svg" xmlns:xlink="http://www.w3.org/1999/xlink" width="127.075" height="130.324" viewBox="0 0 127.075 130.324"><defs><style>.a{fill:none;}.b{fill:#c8b3ff;}.b,.h{opacity:0.2;}.c{fill:#5b2ad0;}.d{fill:#f2f2f2;}.e{fill:#ff00a7;}.f{fill:#e6e6e6;}.g{fill:#fff;}.i{clip-path:url(#a);}.j{clip-path:url(#b);}.k{fill:#2f2e41;}.l{opacity:0.102;}.m{clip-path:url(#c);}.n{clip-path:url(#d);}.o{fill:#ffb9b9;}</style><clipPath id="a"><rect class="a" width="26.59" height="26.6" transform="translate(599.412 1824.258)"/></clipPath><clipPath id="b"><rect class="a" width="18.726" height="18.72" transform="translate(603.344 1828.198)"/></clipPath><clipPath id="c"><rect class="a" width="12.777" height="12.44" transform="translate(662.736 1800.528)"/></clipPath><clipPath id="d"><rect class="a" width="4.742" height="36.63" transform="translate(677.585 1816.648)"/></clipPath></defs><g transform="translate(-17.002 -15.004)"><g transform="translate(-559.823 -1814.678)"><path class="b" d="M638.1,1758.28c32.358-5.089,68.235,23.012,73.461,56.24s-25.391,67.686-57.749,72.775-62.826-17.722-68.052-50.95S605.74,1763.36,638.1,1758.28Z" transform="translate(-8.246 72)"/><g transform="translate(0.491 56)"><path class="c" d="M648.346,1786.17V1893.9a4.844,4.844,0,0,1-4.841,4.838H599.772a4.835,4.835,0,0,1-4.841-4.838V1786.17a4.841,4.841,0,0,1,4.842-4.841h6.544v.84a3.986,3.986,0,0,0,3.985,3.986h22.243a3.949,3.949,0,0,0,2.363-.777,3.836,3.836,0,0,0,.392-.329,3.973,3.973,0,0,0,1.23-2.88v-.84H643.5a4.839,4.839,0,0,1,4.841,4.841"/><path class="d" d="M607.114,1798.11a1.134,1.134,0,0,1,.445.089,1.1,1.1,0,0,1,.377.252,1.17,1.17,0,0,1,.341.822,1.134,1.134,0,0,1-.089.445,1.118,1.118,0,0,1-.252.378,1.132,1.132,0,0,1-.377.252,1.163,1.163,0,0,1-1.52-1.519,1.136,1.136,0,0,1,.253-.378,1.105,1.105,0,0,1,.377-.252,1.134,1.134,0,0,1,.445-.089"/><path class="d" d="M603.4,1807.78h-.3v-.3h-.059v.3h-.3v.06h.3v.3h.059v-.3h.3Z"/><path class="d" d="M623.842,1792.66h-.3v-.3h-.059v.3h-.3v.06h.3v.3h.059v-.3h.3Z"/><path class="d" d="M606.392,1819.75h-.3v-.3h-.059v.3h-.3v.06h.3v.3h.059v-.3h.3Z"/><path class="d" d="M620.352,1810.94h-.3v-.3h-.059v.3h-.3v.06h.3v.3h.059v-.3h.3Z"/><path class="d" d="M640.294,1816.42h-.3v-.3h-.058v.3h-.3v.059h.3v.3h.058v-.3h.3Z"/><path class="e" d="M636.7,1801.44a.664.664,0,1,1-.471.195.639.639,0,0,1,.471-.2"/><path class="f" d="M611.957,1813.04l-.365.111c.22.731.419,1.481.587,2.227l.373-.085c-.171-.754-.372-1.512-.6-2.253"/><path class="f" d="M610.2,1808.79l-.348.16c.32.7.619,1.411.89,2.125l.356-.134c-.273-.723-.574-1.448-.9-2.151"/><path class="f" d="M607.975,1804.7l-.322.2c.411.645.8,1.313,1.17,1.983l.336-.183c-.37-.678-.768-1.353-1.184-2.005"/><path class="f" d="M605.206,1800.96l-.291.248c.5.582.978,1.189,1.433,1.8l.306-.228c-.459-.622-.946-1.236-1.448-1.825"/><path class="f" d="M601.952,1797.63l-.254.284c.571.51,1.132,1.047,1.665,1.594l.275-.268c-.54-.553-1.108-1.1-1.686-1.61"/><path class="f" d="M598.276,1794.76l-.215.316c.635.427,1.264.883,1.866,1.354l.237-.3c-.612-.475-1.246-.935-1.888-1.368"/><path class="f" d="M594.931,1792.78v.432c.4.208.791.425,1.177.648l.191-.331q-.674-.389-1.368-.749"/><path class="f" d="M612.9,1853.48c.061-.371.118-.751.167-1.127l.38.05c-.052.381-.109.766-.171,1.141Z"/><path class="f" d="M611.838,1857.96l.365.114c.23-.739.437-1.495.616-2.249l-.372-.088c-.177.746-.381,1.493-.609,2.223"/><path class="f" d="M610.169,1862.26l.347.162c.33-.7.638-1.419.918-2.14l-.357-.139c-.276.714-.582,1.425-.908,2.117"/><path class="f" d="M607.924,1866.28l.32.208c.423-.648.828-1.32,1.2-2l-.333-.188c-.372.669-.774,1.333-1.192,1.976"/><path class="f" d="M605.146,1869.96l.289.252c.509-.587,1-1.2,1.469-1.813l-.306-.229c-.461.609-.949,1.212-1.452,1.79"/><path class="f" d="M601.893,1873.23l.251.287c.585-.51,1.156-1.047,1.7-1.594l-.27-.27c-.539.541-1.107,1.071-1.683,1.577"/><path class="f" d="M598.228,1876.02l.211.319c.645-.425,1.286-.879,1.9-1.348l-.23-.305c-.61.464-1.242.913-1.881,1.334"/><path class="f" d="M596.45,1877.55c-.462.262-.934.514-1.411.754v-.429c.412-.209.821-.431,1.222-.654Z"/><path class="g" d="M596.718,1831.35h39.09a10.969,10.969,0,0,1,10.968,10.968v1.454H607.687a10.969,10.969,0,0,1-10.969-10.97Z"/><path class="d" d="M627.621,1859.16a2.157,2.157,0,1,1-.827.164,2.153,2.153,0,0,1,.827-.164"/><path class="d" d="M621.306,1875.95a2.162,2.162,0,1,1-1.527.633,2.155,2.155,0,0,1,1.527-.633"/><g class="h"><g class="i"><path class="c" d="M612.707,1824.26a13.35,13.35,0,1,1-2.594.257,13.35,13.35,0,0,1,2.594-.257"/></g></g><g class="h"><g class="j"><path class="c" d="M612.707,1828.19a9.362,9.362,0,0,1,6.62,15.983,9.162,9.162,0,0,1-1.419,1.164,9.362,9.362,0,1,1-5.2-17.147"/></g></g><path class="c" d="M612.707,1831.38a6.182,6.182,0,0,1,5.709,3.815,6.262,6.262,0,0,1,.352,1.16,6.166,6.166,0,0,1,0,2.411,6.264,6.264,0,0,1-.352,1.159,6.18,6.18,0,1,1-5.709-8.545"/><path class="g" d="M613.83,1836.22a1.123,1.123,0,1,0-1.833.87l-.414,2.9h2.247l-.414-2.9a1.113,1.113,0,0,0,.414-.87"/><path class="k" d="M674.809,1790.08s-3.706-3.323-8.69,2.939-12.781,9.33-14.571,11.758c0,0,7.413-3.067,9.969-4.345s2.429-1.023,2.429-1.023-3.451,2.429-4.09,4.858-.128,4.472-1.278,6.9,21.982,1.661,21.982,1.661a13.92,13.92,0,0,0,1.662-8.052c-.639-4.09-.256-14.186-7.413-14.7"/><g class="l"><g class="m"><path d="M667.8,1800.53s.806,5.642-2.648,6.908-2.188,2.993-2.188,2.993l5.181,2.534,5.526-1.727,1.843-2.764s-2.994-.69-2.188-2.762,1.036-2.764,1.036-2.764Z"/></g></g><g class="l"><g class="n"><path d="M682.306,1816.65s-.806,10.593-.576,11.053,0,16.465,0,16.465,1.612,8.634-.46,9.095-1.612-9.672-1.612-9.672l-2.073-13.355.231-13.24Z"/></g></g><path class="o" d="M659.855,1848.54s-3.8,14.392-3.685,21.415a154.837,154.837,0,0,0,1.612,16.81s.23,4.259-.115,4.72,1.727,2.418,1.727,2.418l2.188-1.266.8-.921v-.807s-1.265-3.914-.229-7.022,1.611-10.939.575-13.357l7.139-21.184Z"/><path class="k" d="M659.624,1892.06s-1.382-1.727-2.3-1.151-2.418,4.49-2.418,4.49-5.18,4.951-1.5,5.183,5.3-1.038,5.757-1.96,4.721-3.338,4.721-3.338-.46-4.375-1.152-4.491-1.726,1.728-1.726,1.728Z"/><path class="o" d="M672.405,1849.46v14.277a43.974,43.974,0,0,0,.345,5.181c.345,2.534-1.957,21.415-1.957,21.415l.23,3.34,2.878-.231.346-2.878,4.144-12.665s1.382-7.713.692-10.592,3.569-21.3,3.569-21.3Z"/><path class="k" d="M670.1,1892.87l.853-.185s.643-1.426,1.45-1.081a8.712,8.712,0,0,1,1.6.96l.355.652a13.735,13.735,0,0,0,1.842,2.879c1.036,1.151,2.187,3.683.46,3.914s-4.03.345-4.72-.231-.231-1.5-.921-1.726-1.267-.921-1.151-1.152.23-4.03.23-4.03"/><path class="o" d="M672.405,1794.26a5.144,5.144,0,0,1,2.845.864,5.261,5.261,0,0,1,.775.636,5.17,5.17,0,0,1,1.11,1.66,5.3,5.3,0,0,1,.291.96,5.185,5.185,0,0,1,0,2,5.111,5.111,0,0,1-2.175,3.257,4.984,4.984,0,0,1-.885.473,5.125,5.125,0,0,1-2.96.291,5.115,5.115,0,0,1-2.62-1.4,5.2,5.2,0,0,1-.636-.775,5.133,5.133,0,0,1-.473-.886,5.112,5.112,0,0,1-.292-2.96,5.291,5.291,0,0,1,.292-.96,5.13,5.13,0,0,1,4.729-3.16"/><path class="c" d="M662.733,1808.36l1.521-.53s-.6.991,2.624,1.566,6.562.78,8.059-1.106c0,0,.576-.275,1.382.531s1.267.575,1.267.575l-.577,2.994-1.151,5.527-1.5,4.144-4.26-.921-4.6-3.339-1.728-4.49v-4.144Z"/><path class="c" d="M676.78,1809.97l1.151-.805s3.914.69,4.145,2.532l-2.993,5.757a6.563,6.563,0,0,1-.115,4.951c-1.152,2.648-1.037,3.223-1.037,3.223l-.806,3.455-14.622,1.151a10.414,10.414,0,0,0-.806-1.612c-.23-.229-.23-1.037,0-1.037s0-.343-.23-.69-.345-.46,0-.92-.576-4.606-.576-4.606v-4.491l-3.915-5.181s1.382-2.072,2.073-2.3,3.977-1.139,3.977-1.139l.743,1.1,1.036,8.333,1.5,5.065,6.3-1.07,2.448-4.111,1.613-4.836Z"/><path class="c" d="M681.155,1811.01l.921.691s.806,6.448.575,6.908-4.26.921-4.375.691,2.879-8.29,2.879-8.29"/><path class="k" d="M662.157,1807.79l1.151,7.6s-1.036,11.283-.806,13.586l.23.69s-.46-.229-.575.23a10.8,10.8,0,0,0,0,1.958s-.691.691-.922,4.491-2.993,12.894-1.957,13.24,7.254,2.072,10.593,1.727,15.312-4.375,15.2-5.412-5.871-15.658-5.871-15.658a15.058,15.058,0,0,1-1.037-1.957c0-.23,1.382-1.151,1.037-2.072s-2.187-10.593-2.187-10.593l1.265-6.908-1.726-.461-1.267,6.678a13.285,13.285,0,0,1-10.132.23L664,1807.32Z"/><path class="c" d="M657.393,1851.61a2.972,2.972,0,1,1-3.214,2.708,2.972,2.972,0,0,1,3.214-2.708m-2.935,6.563a4.492,4.492,0,1,0-1.408-1.748l-11.751,9.784-1.565-1.857-.7.47-.782-.928.643-.542-.783-.929-1,.843.482.57-1.071.9-.482-.571-1.571,1.323.721.858.573-.482.782.928-.715.6,1.444,1.714-1.713,1.445,1.745,2.071Z"/><path class="o" d="M656.17,1818.03s.806,10.592.575,11.053,0,16.464,0,16.464-1.611,8.635.461,9.1,1.612-9.671,1.612-9.671l2.073-13.355-.231-13.241Z"/><path class="c" d="M657.9,1811.35l-.921.345s-1.726,7.254-1.267,7.254,5.988.69,5.988.461-1.036-5.871-1.036-5.871Z"/><path class="k" d="M667.7,1795.71s8.521,5.872,10.822,3.224-4.029-4.952-4.029-4.952l-5.3-.575Z"/><path class="o" d="M667.8,1800.53s.806,5.642-2.648,6.908-2.188,2.993-2.188,2.993l5.181,2.534,5.526-1.727,1.843-2.764s-2.994-.69-2.188-2.762,1.036-2.764,1.036-2.764Z"/></g></g></g></svg>