<svg xmlns="http://www.w3.org/2000/svg" width="151.589" height="101.459" viewBox="0 0 151.589 101.459"><defs><style>.a{fill:#c8b3ff;opacity:0.2;}.b{fill:#2f2e41;}.c{fill:#a0616a;}.d{opacity:0.1;}.e{fill:#d0cde1;}.f{fill:#575a89;}.g{fill:#3f3d56;}.h{fill:#00cc8b;}.i{fill:#ff00a7;}.j{fill:#0089ff;}.k{fill:#5b2ad0;}.l{fill:#fbfaff;}.m{fill:#ff6a00;}</style></defs><g transform="translate(-14.411 -9.547)"><g transform="translate(62.411 5.936)"><path class="a" d="M848.36,1340.28c13.688,23.061,3.821,58.5-19.24,72.193s-58.014.543-71.7-22.518a48.558,48.558,0,0,1,16.97-66.541C797.449,1309.72,834.672,1317.22,848.36,1340.28Z" transform="translate(-758.608 -1312.964)"/><path class="b" d="M368.761,215.175a9.811,9.811,0,0,0-7.523-4.466s-4.869-.623-7.993,5.877c-2.911,6.058-6.929,11.907-.647,13.326l1.135-3.532.7,3.795a24.588,24.588,0,0,0,2.688.046c6.728-.217,13.136.064,12.929-2.351C369.779,224.66,371.191,219.282,368.761,215.175Z" transform="translate(-323.445 -175.283)"/><path class="b" d="M368.948,592.41a9.964,9.964,0,0,1-.322,1.387c-.158.444-.4.855-.547,1.3a4.36,4.36,0,0,0,1.2,4.132,6.742,6.742,0,0,0,3.287,1.952,13.417,13.417,0,0,0,2.825.3,21.921,21.921,0,0,0,7.807-.675,13.566,13.566,0,0,0,2.268-1.03,1.7,1.7,0,0,0,.589-.463,1.62,1.62,0,0,0,.212-.951c-.006-1.113-.231-2.22-.178-3.332a13.211,13.211,0,0,0,.088-1.845,3.4,3.4,0,0,0-2.6-2.932,7.064,7.064,0,0,0-2.156,0,54.956,54.956,0,0,1-5.612.251c-1.914-.012-3.817-.3-5.722-.335-.563-.009-.552.165-.731.71a13.28,13.28,0,0,0-.408,1.531Z" transform="translate(-340.154 -515.145)"/><path class="c" d="M410.122,328.687a3.342,3.342,0,0,1-.481,1.377c-.333.455-.876.716-1.234,1.152a3.765,3.765,0,0,0-.572,2.429,2.992,2.992,0,0,0,1.585,3.267c1.636,1.1,3.4,2.225,5.377,2.261a2.859,2.859,0,0,0,2.232-.812,3.352,3.352,0,0,0,.54-.964,12.8,12.8,0,0,0,.906-3.9,4.578,4.578,0,0,0-.173-1.872,17.284,17.284,0,0,0-1.044-1.851,4.122,4.122,0,0,1-.4-2.439.263.263,0,0,0-.014-.177.258.258,0,0,0-.212-.086l-3.912-.282a8.512,8.512,0,0,1-1.086-.124c-.211-.043-.768-.342-.969-.263C410.3,326.553,410.2,328.287,410.122,328.687Z" transform="translate(-375.894 -278.905)"/><path class="d" d="M410.122,329.856a3.342,3.342,0,0,1-.481,1.377c-.333.455-.876.716-1.234,1.152a3.765,3.765,0,0,0-.572,2.429,2.992,2.992,0,0,0,1.585,3.267c1.636,1.1,3.4,2.225,5.377,2.261a2.859,2.859,0,0,0,2.232-.812,3.352,3.352,0,0,0,.54-.964,12.8,12.8,0,0,0,.906-3.9,4.577,4.577,0,0,0-.173-1.872,17.3,17.3,0,0,0-1.044-1.851,4.122,4.122,0,0,1-.4-2.439.263.263,0,0,0-.014-.177.257.257,0,0,0-.212-.086l-3.912-.282a8.517,8.517,0,0,1-1.086-.124c-.211-.043-.768-.342-.969-.263C410.3,327.723,410.2,329.457,410.122,329.856Z" transform="translate(-375.894 -279.952)"/><circle class="c" cx="5.739" cy="5.739" r="5.739" transform="translate(32.229 38.829)"/><path class="e" d="M419.671,388.681a3.518,3.518,0,0,0,1.008.805,3.168,3.168,0,0,0,1.259.24,3.8,3.8,0,0,0,2.876-.9c.928-.959.9-2.505,1.624-3.623a.808.808,0,0,1,.234-.256.76.76,0,0,1,.4-.092,4.128,4.128,0,0,1,2.44,1.155,3.214,3.214,0,0,1,.859.875,2.965,2.965,0,0,1,.29.887,38.988,38.988,0,0,1,.589,5.319c.064.984.127,1.969.122,2.955a42.721,42.721,0,0,1-1.522,9.6,1.5,1.5,0,0,1-.6,1.058,1.48,1.48,0,0,1-.523.128,64.007,64.007,0,0,1-6.471.539q-1.267.02-2.534-.061a1.365,1.365,0,0,1-.427-.074,1.2,1.2,0,0,1-.465-.4c-1.171-1.476-1.24-3.516-1.233-5.4q.027-6.909.494-13.808a1.519,1.519,0,0,0-.242-1.139,14.267,14.267,0,0,0,1.822,2.192Z" transform="translate(-384.638 -331.26)"/><path class="f" d="M349.823,353.672a20.041,20.041,0,0,1-1.9,1.513c-1.541,1.625-4.355,1.564-5.764,3.3a5.423,5.423,0,0,0-.943,2.146,5.135,5.135,0,0,0,.038,3.281,16.279,16.279,0,0,0,1.959,2.537,9.769,9.769,0,0,1,1.275,3.272,7.531,7.531,0,0,1,.349,2.57,15.538,15.538,0,0,1-.853,2.832,3.01,3.01,0,0,0,.32,2.821,3.219,3.219,0,0,0,1.942.886,22.316,22.316,0,0,0,2.768.241,3.373,3.373,0,0,0,2.349-.481,2.362,2.362,0,0,0,.74-1.731,11.169,11.169,0,0,0-.191-1.927c-.087-.664-.121-1.334-.149-2q-.189-4.5-.052-9.017a7.674,7.674,0,0,0-.091-1.871,10.257,10.257,0,0,0-.973-2.263,8.562,8.562,0,0,1-.949-4.523C349.81,353.65,350.512,352.424,349.823,353.672Z" transform="translate(-316.006 -302.877)"/><path class="f" d="M486,348.991c.3.3,1.3.4,1.674.6a5.869,5.869,0,0,0,1.1.381,14.286,14.286,0,0,1,3.866,1.774,2.344,2.344,0,0,1,.646.558,2.56,2.56,0,0,1,.358,1.01,8.6,8.6,0,0,1-.308,5.642l-1.1,3.518a37.732,37.732,0,0,0-1.879,8.019,18.862,18.862,0,0,0,.169,4.554.54.54,0,0,1-.055.441.435.435,0,0,1-.269.124,2.643,2.643,0,0,1-1.526-.427,16.9,16.9,0,0,0-4.659-1.524,10.833,10.833,0,0,0,1.447-2.983,18.078,18.078,0,0,0,.437-2.051l.512-2.96a29.068,29.068,0,0,0,.439-3.274,4.1,4.1,0,0,0-.071-1.233,5.982,5.982,0,0,0-.467-1.112,9.5,9.5,0,0,1-.907-5.676,8.3,8.3,0,0,0,.31-2.524,17.784,17.784,0,0,0-.2-2.245C484.655,346.3,485.443,348.42,486,348.991Z" transform="translate(-444.123 -298.074)"/><path class="f" d="M340.622,410.7a13.421,13.421,0,0,0-1.246,2.336,5.1,5.1,0,0,0-.109,1.221,5.8,5.8,0,0,0,.181,1.836c.122.379.321.728.464,1.1a3.985,3.985,0,0,1,.261,1.628c-.039.769-.3,1.515-.32,2.284a7.393,7.393,0,0,0,1.074,3.428,2.52,2.52,0,0,1,3.663-1.2.751.751,0,0,0,.165-.547q.061-2.106.117-4.211a25.179,25.179,0,0,0-.384-6.485,6.118,6.118,0,0,0-1.22-2.645c-.339-.39-1.488-1.416-2.044-.98-.25.2-.192.731-.231,1A4.245,4.245,0,0,1,340.622,410.7Z" transform="translate(-314.483 -352.313)"/><path class="f" d="M523.127,391.242a5.876,5.876,0,0,1,.2,1.766q.011,1.82-.048,3.64a6.788,6.788,0,0,1-.236,1.843c-.124.391-.316.757-.444,1.146a10.739,10.739,0,0,0-.141,3.659,4.159,4.159,0,0,1-.1,1.184,9.739,9.739,0,0,1-1.128,2.066,20.3,20.3,0,0,1-1.011,2,1.907,1.907,0,0,1-1.9.908,2.1,2.1,0,0,1-1.208-1.126,5.524,5.524,0,0,1-.571-3.584c.271-1.49,1.146-2.812,1.462-4.293.433-2.034-.225-4.133-.206-6.213a3,3,0,0,1,.131-.963,4.033,4.033,0,0,1,.85-1.235,15.6,15.6,0,0,0,1.142-1.5c.235-.351.555-1.253.972-1.328C521.812,389.045,522.9,390.522,523.127,391.242Z" transform="translate(-473.167 -335.155)"/><path class="b" d="M260.6,601.515a5.66,5.66,0,0,0-1.576-.168,3.933,3.933,0,0,0-3.651,4.636A6.608,6.608,0,0,0,256,607.69a5.7,5.7,0,0,0,1.693,2.238,6.6,6.6,0,0,0,1.494.711l4.074,1.535c.6.226,1.2.452,1.8.661a35.289,35.289,0,0,0,9.424,1.873,10.2,10.2,0,0,0,2.926-.148.952.952,0,0,0,.6-.324,1.026,1.026,0,0,0,.134-.442l.251-1.755a1.471,1.471,0,0,0-.021-.74,1.418,1.418,0,0,0-.677-.638c-2.679-1.538-5.806-2.387-8.061-4.5-.531-.5-.975-1.285-1.62-1.623-.731-.383-1.593-.6-2.348-.954a26,26,0,0,0-5.069-2.069Z" transform="translate(-239.29 -525.155)"/><path class="d" d="M329.309,622.188c1.44.451,7.52,3.578,8.563,4.669-.14.05-4.879-2.606-5.022-2.649a28.632,28.632,0,0,1-3.82-1.346c-.247-.114-1.6-.651-1.543-.963C327.556,621.548,329.053,622.108,329.309,622.188Z" transform="translate(-303.933 -543.461)"/><path class="c" d="M466.408,706.118a.339.339,0,0,0,.228-.067.353.353,0,0,0,.071-.263q0-1.2-.007-2.391a7.351,7.351,0,0,0-2.212-.534l-3.523-.471c.081.011-.551,1.517-.454,1.718.171.354,1.475.669,1.844.836a9.216,9.216,0,0,0,4.053,1.172Z" transform="translate(-423.065 -615.654)"/><path class="c" d="M392.577,697.2a2.854,2.854,0,0,0-1.838.717,2.616,2.616,0,0,0-.053,2.449.794.794,0,0,0,.926.662,3.2,3.2,0,0,0,1.782-.229,7.8,7.8,0,0,0,.692-.515,4.441,4.441,0,0,1,1.273-.582,12.863,12.863,0,0,1,2.555-.526A3.976,3.976,0,0,0,398.92,699a1.115,1.115,0,0,0,.709-.688,1.64,1.64,0,0,0-.372-1.259,5.021,5.021,0,0,0-1.071-1.324c-.656-.51-.981-.118-1.642.208a13.933,13.933,0,0,1-3.967,1.263Z" transform="translate(-360.286 -609.466)"/><path class="b" d="M325.538,704.352l-4.223-1.248a5.587,5.587,0,0,0-1.572-.3,1.887,1.887,0,0,0-1.443.584,2.811,2.811,0,0,0-.5,1.408l-.175,1.066a5.353,5.353,0,0,0-.1,1.637,1.81,1.81,0,0,0,.839,1.349,2.89,2.89,0,0,0,1.953.03,21.26,21.26,0,0,1,4-.429,3.213,3.213,0,0,0,1.482-.236,1.851,1.851,0,0,0,.9-1.475C326.787,705.821,326.484,704.632,325.538,704.352Z" transform="translate(-294.985 -616.018)"/><path class="b" d="M517.618,699.988a10.247,10.247,0,0,0,1.555-.591,6.918,6.918,0,0,1,2.321-.256,1.124,1.124,0,0,1,1.324,1.265l.354,2.473a3.88,3.88,0,0,1,.029,1.4,1.318,1.318,0,0,1-.871,1.018,2.592,2.592,0,0,1-1.615-.441c-1.3-.579-2.818-.431-4.177-.864a.937.937,0,0,1-.625-.447,1.019,1.019,0,0,1-.049-.427,10.755,10.755,0,0,1,.095-2.64C516.173,699.8,517.007,699.988,517.618,699.988Z" transform="translate(-472.615 -612.742)"/><path class="b" d="M467.566,591.558a7.333,7.333,0,0,1,2.583-.177,2.723,2.723,0,0,1,2.734,3.073,7.271,7.271,0,0,1-1.58,4.643,4.212,4.212,0,0,1-.9.87,5.946,5.946,0,0,1-1.175.566l-9.125,3.6a58.953,58.953,0,0,1-7.313,2.521.57.57,0,0,1-.767-.278,18.9,18.9,0,0,1-2-3.658.247.247,0,0,1,.109-.389l6.454-3.708a6.523,6.523,0,0,0,1.314-.905,3.26,3.26,0,0,0,.674-.939c.134-.279.146-.939.317-1.145s.74-.218,1-.3a9.137,9.137,0,0,0,1.093-.413c1.444-.646,2.729-1.584,4.113-2.34A10.555,10.555,0,0,1,467.566,591.558Z" transform="translate(-413.626 -516.193)"/><path class="d" d="M494.66,613.913c-1.109.833-2.544,1.6-3.643,2.453-.375.292-6.627,3.807-6.716,4.274,1.025.173,7.556-4.4,8.491-4.852a15.1,15.1,0,0,0,2.583-1.737c.209-.163,1.1-.651.5-.833C495.532,613.115,494.91,613.746,494.66,613.913Z" transform="translate(-444.379 -535.778)"/><path class="g" d="M413.247,360.015h-9.733a1.491,1.491,0,0,0-1.491,1.491v.546h-.106v1.221h.106v.855h-.106v.733h.106v9.009a1.491,1.491,0,0,0,1.491,1.491h9.733a1.491,1.491,0,0,0,1.491-1.491V361.506a1.491,1.491,0,0,0-1.491-1.491Z" transform="translate(-370.595 -309.017)"/><path class="b" d="M233.819,162.789l-4.937-2.586-6.817,1.058-1.41,6.229,3.511-.135.981-2.289v2.251l1.62-.062.94-3.644.588,3.879,5.759-.118Z" transform="translate(-189.621 -123.308)"/><path class="c" d="M356.237,449.426a2.565,2.565,0,0,0,.921.917,1.8,1.8,0,0,0,1.584-.042,2.788,2.788,0,0,0,1.143-1.146,5.7,5.7,0,0,0,.581-3.168c-.067-1.087-.3-2.157-.4-3.241-.075-.788-.081-1.581-.087-2.372a.789.789,0,0,1,.1-.48.942.942,0,0,1,.529-.264,4.255,4.255,0,0,0,2.317-2.342,4.059,4.059,0,0,0,.577-2.156,1.693,1.693,0,0,0-1.357-1.585,2.176,2.176,0,0,0-1.636.763,7.016,7.016,0,0,0-2.054,4.105,15.9,15.9,0,0,1-.278,2.29c-.444,1.584-1.832,2.554-2.524,3.979a4.8,4.8,0,0,0,.584,4.742Z" transform="translate(-328.807 -374.867)"/><path class="c" d="M504.861,402.862a2.993,2.993,0,0,1-1.678,1.613,2.318,2.318,0,0,1-1.459.089,1.618,1.618,0,0,1-1.069-.956,2.575,2.575,0,0,1-.12-.718,7.4,7.4,0,0,1,.345-3.166c.15-.385.351-.749.469-1.145a5.744,5.744,0,0,0,.177-1.4l.128-2.914a1.9,1.9,0,0,0-.043-.632,2,2,0,0,0-.883-.947,5.8,5.8,0,0,1-2.159-2.291,1.607,1.607,0,0,1-.149-.949,1.578,1.578,0,0,1,1.28-1.079,2.864,2.864,0,0,1,3.433,2.308c.057.329.056.665.09,1,.071.7.3,1.383.434,2.077.345,1.709.166,3.476.507,5.186C504.449,400.366,505.523,401.3,504.861,402.862Z" transform="translate(-457.003 -334.353)"/><circle class="e" cx="1.221" cy="1.221" r="1.221" transform="translate(36.694 55.11)"/><path class="h" d="M902.707,423.632a6.541,6.541,0,1,0,6.542,6.541,6.541,6.541,0,0,0-6.542-6.541Z" transform="translate(-813.165 -366.022)"/><circle class="i" cx="1.162" cy="1.162" r="1.162" transform="translate(86.193 38.281)"/><path class="i" d="M915.2,221.5h-2.9a1.457,1.457,0,0,0-1.453,1.453v2.906a1.457,1.457,0,0,0,1.453,1.453h2.9a1.457,1.457,0,0,0,1.453-1.453V222.95A1.457,1.457,0,0,0,915.2,221.5Zm-1.453,4.65a1.744,1.744,0,1,1,1.744-1.744,1.744,1.744,0,0,1-1.744,1.744Zm1.889-3.2a.435.435,0,1,1,.308-.127.435.435,0,0,1-.308.127Z" transform="translate(-826.393 -184.96)"/><path class="i" d="M878.8,183.859a6.9,6.9,0,1,0,6.9,6.9A6.9,6.9,0,0,0,878.8,183.859Zm3.562,8.288a2.04,2.04,0,0,1-2.034,2.034h-2.906a2.04,2.04,0,0,1-2.034-2.034v-2.906a2.04,2.04,0,0,1,2.034-2.034h2.906a2.04,2.04,0,0,1,2.034,2.034Z" transform="translate(-791.52 -151.25)"/><path class="j" d="M611.785,64.718A6.785,6.785,0,1,0,618.57,71.5,6.785,6.785,0,0,0,611.785,64.718Zm2.14,4.106h-.869c-.593,0-.706.281-.706.694V70.4h1.412l-.185,1.378H612.35v3.74h-1.575v-3.74h-1.129V70.4h1.129V69.378a1.8,1.8,0,0,1,1.936-1.885c.522,0,1.083.039,1.213.057Z" transform="translate(-552.478 -44.547)"/><rect class="k" width="151.589" height="0.844" transform="translate(-48 91.386)"/><rect class="k" width="0.44" height="16.356" transform="translate(-28.663 75.565)"/><circle class="k" cx="2.313" cy="2.313" r="2.313" transform="translate(-30.756 73.253)"/><path class="k" d="M262.259,706.8s-.33-7.107-7.1-6.281" transform="translate(-290.702 -621.157)"/><path class="l" d="M9.452,1.517A3.47,3.47,0,0,0,3.992,5.7L3.5,7.5l1.839-.483A3.458,3.458,0,0,0,7,7.439H7A3.5,3.5,0,0,0,10.5,3.97,3.482,3.482,0,0,0,9.452,1.517ZM7,6.855a2.878,2.878,0,0,1-1.469-.4l-.1-.062L4.34,6.679l.291-1.064L4.556,5.5A2.889,2.889,0,1,1,9.914,3.97,2.915,2.915,0,0,1,7,6.855ZM8.58,4.7c-.086-.044-.512-.253-.592-.281s-.137-.044-.2.044-.223.281-.275.341-.1.066-.187.022A2.359,2.359,0,0,1,6.15,3.789c-.089-.153.089-.142.255-.473A.161.161,0,0,0,6.4,3.164c-.022-.044-.2-.47-.267-.644s-.142-.145-.2-.148-.108,0-.166,0a.321.321,0,0,0-.231.108.974.974,0,0,0-.3.723,1.7,1.7,0,0,0,.353.9,3.873,3.873,0,0,0,1.48,1.3,1.7,1.7,0,0,0,1.041.217.888.888,0,0,0,.584-.413.725.725,0,0,0,.05-.413C8.723,4.759,8.666,4.738,8.58,4.7Z" transform="translate(82.5 60.11)"/><path class="k" d="M2.068-1A3.068,3.068,0,1,1-1,2.068,3.071,3.071,0,0,1,2.068-1Zm0,4.136A1.068,1.068,0,1,0,1,2.068,1.069,1.069,0,0,0,2.068,3.136Z" transform="translate(3.863 12.928)"/><path class="m" d="M2.068-1A3.068,3.068,0,1,1-1,2.068,3.071,3.071,0,0,1,2.068-1Zm0,4.136A1.068,1.068,0,1,0,1,2.068,1.069,1.069,0,0,0,2.068,3.136Z" transform="translate(83.863 84.928)"/><circle class="i" cx="1.436" cy="1.436" r="1.436" transform="translate(-35.744 70.191)"/></g></g></svg>