<svg xmlns="http://www.w3.org/2000/svg" width="170.589" height="111.058" viewBox="0 0 170.589 111.058"><defs><style>.a{fill:#c8b3ff;opacity:0.2;}.b{fill:#3f3d56;}.c{fill:#5b2ad0;}.d{fill:#f0f0f0;}.e{fill:#fff;}.f{opacity:0.1;}.g{fill:#f0f1ff;}.h{fill:#2f2e41;}.i{fill:#ffb8b8;}.j{fill:#ff6a00;}.k{fill:#00cc8b;}.l{fill:#ff00a7;}</style></defs><g transform="translate(-5.706 -4.83)"><g transform="translate(5.706 -25.625)"><path class="a" d="M848.36,1340.28c13.688,23.061,3.821,58.5-19.24,72.193s-58.014.543-71.7-22.518a48.558,48.558,0,0,1,16.97-66.541C797.449,1309.72,834.672,1317.22,848.36,1340.28Z" transform="translate(-714.266 -1276.52)"/><path class="b" d="M351.349,574.814H317.5V568h33.849Zm-33.41-.44h32.97V568.44H317.94Z" transform="translate(-291.344 -474.255)"/><circle class="c" cx="2.111" cy="2.111" r="2.111" transform="translate(54.048 95.255)"/><circle class="c" cx="2.111" cy="2.111" r="2.111" transform="translate(47.292 95.255)"/><circle class="c" cx="2.111" cy="2.111" r="2.111" transform="translate(41.38 95.255)"/><circle class="c" cx="2.111" cy="2.111" r="2.111" transform="translate(35.469 95.255)"/><ellipse class="c" cx="2.533" cy="2.111" rx="2.533" ry="2.111" transform="translate(28.713 95.255)"/><rect class="c" width="27.024" height="5.911" transform="translate(118.23 105.389)"/><rect class="d" width="39.691" height="5.067" transform="translate(111.474 77.52)"/><rect class="c" width="170.589" height="0.844" transform="translate(0 134.946)"/><path class="b" d="M720.37,387.125H670.394a5.9,5.9,0,0,1-5.894-5.894V288.394a5.9,5.9,0,0,1,5.894-5.894H720.37a5.9,5.9,0,0,1,5.894,5.894v92.837a5.9,5.9,0,0,1-5.894,5.894Z" transform="translate(-562.073 -251.508)"/><path class="b" d="M773.319,293.138a1.319,1.319,0,1,1,1.319-1.319A1.319,1.319,0,0,1,773.319,293.138Zm0-2.2a.879.879,0,1,0,.879.879.879.879,0,0,0-.879-.879Z" transform="translate(-645.944 -257.75)"/><rect class="b" width="9.671" height="0.44" transform="translate(130.672 33.849)"/><path class="c" d="M865.084,311.5v17.584A17.585,17.585,0,0,1,847.5,311.5Z" transform="translate(-704.849 -274.134)"/><path class="e" d="M735.791,403.036H681.5V310.5h54.291Z" transform="translate(-575.336 -273.354)"/><circle class="f" cx="5.911" cy="5.911" r="5.911" transform="translate(141.876 42.051)"/><circle class="c" cx="5.911" cy="5.911" r="5.911" transform="translate(141.031 42.896)"/><rect class="b" width="7.6" height="2.533" transform="translate(108.94 41.207)"/><rect class="b" width="8.445" height="3.378" transform="translate(113.163 69.92)"/><path class="b" d="M753.943,492.215H713.5V486.5h40.443Zm-40-.44H753.5V486.94H713.94Z" transform="translate(-600.303 -410.669)"/><rect class="g" width="41.691" height="5.067" transform="translate(112.474 92.625)"/><rect class="b" width="8.445" height="3.378" transform="translate(113.163 86.81)"/><path class="b" d="M753.943,568.215H713.5V562.5h40.443Zm-40-.44H753.5V562.94H713.94Z" transform="translate(-600.303 -469.964)"/><path class="b" d="M770.2,619.654H742.5V613.5h27.7Zm-27.255-.44h26.816V613.94H742.94Z" transform="translate(-622.928 -509.754)"/><path class="c" d="M876.5,494.5a2,2,0,0,1-3.541,1.274h0a2,2,0,1,1,3.485-1.746h0a2.042,2.042,0,0,1,.056.472Z" transform="translate(-724.351 -415.475)"/><path class="c" d="M876.5,570.5a2,2,0,0,1-3.541,1.274h0a2,2,0,1,1,3.485-1.746h0a2.043,2.043,0,0,1,.056.472Z" transform="translate(-724.351 -474.875)"/><path class="h" d="M488.5,386.6l.981.528,3.337,1.8,5.387,2.9,3.14-5.825a4.731,4.731,0,0,0-1.922-6.416,6.284,6.284,0,0,0-7.337,1h0a6.291,6.291,0,0,0-1.181,1.555Z" transform="translate(-424.76 -326.667)"/><path class="i" d="M339.962,540.6l-.658,7.24-2.468.329-1.645-8.227Z" transform="translate(-261.515 -421.262)"/><path class="h" d="M535.456,715.894s3.126-1.646,3.785-.329c0,0-.494,3.949,1.481,4.443s2.8,3.949,0,4.278-4.607-.658-5.595-.658,0-3.456,0-3.456Z" transform="translate(-460.794 -588.986)"/><path class="i" d="M266.316,540.6l.658,7.24,2.468.329,1.645-8.227Z" transform="translate(-207.78 -421.262)"/><path class="h" d="M456.945,715.894s-3.126-1.646-3.785-.329c0,0,.494,3.949-1.481,4.443s-2.8,3.949,0,4.278,4.607-.658,5.6-.658,0-3.456,0-3.456Z" transform="translate(-394.624 -588.986)"/><circle class="i" cx="4.278" cy="4.278" r="4.278" transform="translate(67.751 52.695)"/><path class="i" d="M464.067,409.1l3.456,5.43,4.114-.329,6.747.494s.637-1.274,1.157-2.513a9.736,9.736,0,0,0,.653-1.93c.165-1.152-2.139-2.3-2.139-2.3s-.091-.016-.242-.053c-.2-.048-.51-.127-.849-.242-.765-.26-1.685-.7-1.871-1.351-.329-1.152,2.139-2.8,2.139-2.8l-2.962-2.8s-2.631,3.655-5.827,4.487a5.1,5.1,0,0,1-.563.115h-.028a4.381,4.381,0,0,0-3.785,3.792Z" transform="translate(-405.695 -343.732)"/><path class="i" d="M452.028,432.149l-1.81,1.481s-1.481,7.076-.987,9.05a9.348,9.348,0,0,1-.165,4.114c0,.329-1.481,12.67-1.481,12.67s-2.962,6.582.165,5.924,1.975-7.24,1.975-7.24l3.785-11.518v-9.71Z" transform="translate(-391.846 -368.264)"/><path class="i" d="M529.108,438.138l1.316.987.658,13.822,4.937,11.848s3.62,5.759,1.316,5.924-3.785-5.924-3.785-5.924l-4.443-11.354-.658-11.025Z" transform="translate(-455.926 -372.936)"/><path class="h" d="M465.368,442.629a12.38,12.38,0,0,0,8.557,1.481s1.481,2.962.658,4.607.987,5.6,1.316,6.088a92.215,92.215,0,0,1,5.43,21.721c1.316,11.025,4.936,18.594,1.81,19.581s-9.544,2.139-10.2,1.152-1.645-25.505-1.645-25.505l-1.81,9.379s2.468,15.961.658,16.29-13.164-.658-12.835-2.633,3.62-12.341,3.62-12.341-.165-20.733,3.126-24.682a4.725,4.725,0,0,0-.494-4.937c-1.81-2.8-1.646-7.24-1.646-7.24S463.229,445.591,465.368,442.629Z" transform="translate(-400.414 -376.441)"/><path class="h" d="M282.913,279.736l2.77,6.093.658-.329-2.865-5.879Z" transform="translate(-220.728 -218.16)"/><path class="h" d="M522.737,432.306l2.078,4.573.5-.044-.169-.778-1.558-3.508C523.386,432.5,523.076,432.421,522.737,432.306Z" transform="translate(-451.47 -368.386)"/><path class="h" d="M492.527,387.132a2.709,2.709,0,0,0,4.969.484c-2.082-2.722-.3-4.431,3.085-5.725a2.706,2.706,0,0,0-.291-3,6.306,6.306,0,0,0-5.159,1.7h0l-2.4,4.456A2.7,2.7,0,0,0,492.527,387.132Z" transform="translate(-427.804 -326.671)"/><ellipse class="i" cx="0.576" cy="0.987" rx="0.576" ry="0.987" transform="translate(68.903 56.48)"/><path class="h" d="M522.408,383.918l4.946,2.241.907-2a4.739,4.739,0,0,0-.954-2l-3.4-1.542Z" transform="translate(-451.213 -328.062)"/><circle class="c" cx="2" cy="2" r="2" transform="translate(81.072 95.255)"/><rect class="c" width="0.44" height="16.356" transform="translate(19.337 119.126)"/><circle class="c" cx="2.313" cy="2.313" r="2.313" transform="translate(17.244 116.813)"/><path class="c" d="M262.259,706.8s-.33-7.107-7.1-6.281" transform="translate(-242.702 -577.597)"/><path class="c" d="M2.068-1A3.068,3.068,0,1,1-1,2.068,3.071,3.071,0,0,1,2.068-1Zm0,4.136A1.068,1.068,0,1,0,1,2.068,1.069,1.069,0,0,0,2.068,3.136Z" transform="translate(96.777 31.455)"/><path class="j" d="M2.068-1A3.068,3.068,0,1,1-1,2.068,3.071,3.071,0,0,1,2.068-1Zm0,4.136A1.068,1.068,0,1,0,1,2.068,1.069,1.069,0,0,0,2.068,3.136Z" transform="translate(164.113 80.488)"/><path class="k" d="M2.068-1A3.068,3.068,0,1,1-1,2.068,3.071,3.071,0,0,1,2.068-1Zm0,4.136A1.068,1.068,0,1,0,1,2.068,1.069,1.069,0,0,0,2.068,3.136Z" transform="translate(36.113 68.625)"/><circle class="l" cx="1.436" cy="1.436" r="1.436" transform="translate(12.506 105.752)"/></g></g></svg>