<svg xmlns="http://www.w3.org/2000/svg" width="151.609" height="105.607" viewBox="0 0 151.609 105.607"><defs><style>.a{fill:#c8b3ff;opacity:0.2;}.b{fill:#5b2ad0;}.c{fill:#ff6a00;}.d{fill:#00cc8b;}.e{fill:#f2f2f2;}.f{fill:#3f3d56;}.g{fill:#2f2e41;}.h{opacity:0.1;}.i{fill:#9f616a;}.j{fill:#a0616a;}.k{fill:#ff00a7;}</style></defs><g transform="translate(-15 -7.281)"><g transform="translate(25.589 2.371)"><path class="a" d="M848.36,1340.28c13.688,23.061,3.821,58.5-19.24,72.193s-58.014.543-71.7-22.518a48.558,48.558,0,0,1,16.97-66.541C797.449,1309.72,834.672,1317.22,848.36,1340.28Z" transform="translate(-742.608 -1307.516)"/><path class="b" d="M2.068-1A3.068,3.068,0,1,1-1,2.068,3.071,3.071,0,0,1,2.068-1Zm0,4.136A1.068,1.068,0,1,0,1,2.068,1.069,1.069,0,0,0,2.068,3.136Z" transform="translate(84.766 5.91)"/><path class="c" d="M2.068-1A3.068,3.068,0,1,1-1,2.068,3.071,3.071,0,0,1,2.068-1Zm0,4.136A1.068,1.068,0,1,0,1,2.068,1.069,1.069,0,0,0,2.068,3.136Z" transform="translate(112.101 66.049)"/><path class="d" d="M2.068-1A3.068,3.068,0,1,1-1,2.068,3.071,3.071,0,0,1,2.068-1Zm0,4.136A1.068,1.068,0,1,0,1,2.068,1.069,1.069,0,0,0,2.068,3.136Z" transform="translate(21.86 11.097)"/><circle class="e" cx="7.614" cy="7.614" r="7.614" transform="translate(59.587 11.974)"/><path class="f" d="M220.505,182.771h33.73a7.17,7.17,0,0,1,7,5.594l17.043,75.6a5.8,5.8,0,0,1-5.368,7.063l-34.675,1.708a7.656,7.656,0,0,1-7.911-6.284L220.652,213l-.719.206-1.85-10.13.74-.185-2.7-14.919a4.415,4.415,0,0,1,4.381-5.2Z" transform="translate(-198.513 -167.438)"/><path class="b" d="M270.213,194.4h3.937a4.955,4.955,0,0,1,4.841,3.9l16.359,74.98a3.07,3.07,0,0,1-2.8,3.718l-34.563,2.265A3.977,3.977,0,0,1,253.815,276l-13.959-77.5a3.483,3.483,0,0,1,3.428-4.1h3.735a1.644,1.644,0,0,1,1.587,1.216h0a1.451,1.451,0,0,0,1.4,1.074h17.732a2.481,2.481,0,0,0,2.473-2.29Z" transform="translate(-218.93 -177.434)"/><rect class="g" width="35.764" height="0.176" transform="translate(26.529 36.343)"/><rect class="g" width="36.117" height="0.176" transform="translate(27.586 42.069)"/><path class="g" d="M187.886,242.128l.813-1.083-.141-.106-.7.936-2.706-2.214-.111.137Z" transform="translate(-159.099 -206.064)"/><path class="g" d="M221.191,424.361l.813-1.083-.141-.106-.7.936-2.706-2.214-.111.136Z" transform="translate(-187.734 -362.751)"/><rect class="g" width="37.447" height="0.176" transform="translate(30.227 62.418) rotate(-1.213)"/><rect class="g" width="38.153" height="0.176" transform="matrix(1, -0.023, 0.023, 1, 30.667, 67.702)"/><path class="h" d="M414.94,604.918a8.369,8.369,0,1,0,16.737,0c0-.1,0-.209-.007-.313a8.368,8.368,0,1,0-16.733.313Z" transform="translate(-369.516 -523.077)"/><path class="h" d="M420.614,629.121c0,.1,0,.209.006.313a8.37,8.37,0,0,0,15.938-3.572c0-.1,0-.209-.006-.313a8.37,8.37,0,0,0-15.938,3.572Z" transform="translate(-374.397 -544.021)"/><circle class="g" cx="5.159" cy="5.159" r="5.159" transform="translate(91.982 27.773)"/><path class="i" d="M718.037,692.625l.981,4.206h-2.383l-.981-4.766Z" transform="translate(-615.331 -595.048)"/><path class="i" d="M636.037,696.064v3.925l-2.383.28v-4.206Z" transform="translate(-544.826 -598.487)"/><path class="i" d="M800.2,450.6s-.28,6.028-.561,6.448-2.8,6.448-2.8,6.448l-1.262-3.925s1.963-3.224,1.682-5.047a20.936,20.936,0,0,1-.1-4.065Z" transform="translate(-696.796 -397.6)"/><circle class="i" cx="3.925" cy="3.925" r="3.925" transform="translate(91.492 30.569)"/><path class="i" d="M765.343,322.456s-.14,5.607.841,6.448-5.607.14-5.607.14,1.4-3.925.28-4.766S765.343,322.456,765.343,322.456Z" transform="translate(-666.702 -287.541)"/><path class="g" d="M706.106,358.8s.841-1.542,1.963-1.4,4.766.421,4.906.7a8.374,8.374,0,0,0,.841,1.542c.28.28,2.383.7,2.523,2.383s-5.047,11.916-5.047,11.916a12.175,12.175,0,0,1,.561,2.944c-.14.561.7,2.243.561,2.944s2.1,4.906.981,10.374v8.832s3.785,15.28,2.663,16.4-4.906.421-5.607,0-3.645-21.588-3.645-21.588l-1.4-7.149-.14,15.7s.28,13.177-.7,13.6-4.766.561-5.047-.28c-.219-.656-1.29-18.11-1.751-25.761a28.587,28.587,0,0,1,.617-7.875c.583-2.646,1.43-5.755,2.4-7.017,1.822-2.383,2.944-9.953,2.944-9.953l-2.383-4.346s1.4-1.4,2.243-1.4a11.552,11.552,0,0,0,2.517-.566Z" transform="translate(-612.652 -317.58)"/><path class="g" d="M807.8,383.456l.739.5s.522,9.029.1,9.59-3.344.287-3.565-.207S807.8,383.456,807.8,383.456Z" transform="translate(-704.953 -339.99)"/><path class="i" d="M657.76,437.212c.41,2.847.77,5.381-1.328,7.673a39.371,39.371,0,0,1-7.084,6.136c-.257.682-4.035,5.688-4.227,3.691s1.113-3.562,2.968-5.251A58.846,58.846,0,0,0,654,442.1c1.464-2.01.861-3.264.811-4.943S657.185,437.232,657.76,437.212Z" transform="translate(-567.415 -385.536)"/><path class="g" d="M712.466,781.255a4.789,4.789,0,0,1-.561,1.991,2.8,2.8,0,0,0-1.4,2.523c.14,1.542,1.051,1.612,1.051,1.612l-.07-.35.421.14.07.21H715.9a12.64,12.64,0,0,0-.07-2.173c-.14-.7-.14-4.065-.561-3.925s-1.542.28-1.822.841S712.325,782.489,712.466,781.255Z" transform="translate(-623.637 -682.024)"/><path class="g" d="M805.4,781.255a4.79,4.79,0,0,0,.561,1.991,2.8,2.8,0,0,1,1.4,2.523c-.14,1.542-1.051,1.612-1.051,1.612l.07-.35-.421.14-.07.21h-3.925a12.64,12.64,0,0,1,.07-2.173c.14-.7.14-4.065.561-3.925s1.542.28,1.822.841S805.544,782.489,805.4,781.255Z" transform="translate(-702.277 -682.024)"/><path class="g" d="M714.6,378.456l-1.963.421a15.468,15.468,0,0,1-.561,4.346c-.561,1.262-1.542,4.206-1.121,4.346s4.346,2.1,4.626.981S716.559,378.456,714.6,378.456Z" transform="translate(-623.946 -335.691)"/><circle class="g" cx="5.159" cy="5.159" r="5.159" transform="translate(97.571 20.98)"/><path class="g" d="M806.623,260.738a5.159,5.159,0,0,1-7.966-2.709,5.159,5.159,0,1,0,10.063-2.116,5.157,5.157,0,0,1-2.1,4.825Z" transform="translate(-699.443 -230.327)"/><circle class="g" cx="3.783" cy="3.783" r="3.783" transform="translate(94.734 30.008)"/><ellipse class="g" cx="3.353" cy="2.622" rx="3.353" ry="2.622" transform="translate(91.982 29.75)"/><ellipse class="j" cx="0.636" cy="1.126" rx="0.636" ry="1.126" transform="translate(93.805 33.934)"/><rect class="b" width="151.609" height="0.844" transform="translate(-10.589 104.95)"/><circle class="k" cx="1.436" cy="1.436" r="1.436" transform="translate(0.494 80.207)"/><rect class="b" width="0.44" height="16.356" transform="translate(8.748 89.13)"/><circle class="b" cx="2.313" cy="2.313" r="2.313" transform="translate(6.655 86.817)"/><path class="b" d="M262.259,706.8s-.33-7.107-7.1-6.281" transform="translate(-253.291 -607.593)"/></g></g></svg>