<svg xmlns="http://www.w3.org/2000/svg" width="28.015" height="28.009" viewBox="0 0 28.015 28.009"><defs><style>.a{fill:#fff;}</style></defs><g transform="translate(-5.996 -6.99)"><path class="a" d="M14.006,8.813a7.17,7.17,0,1,0,5.081,2.1,7.181,7.181,0,0,0-5.081-2.1Zm0,11.85a4.669,4.669,0,1,1,4.669-4.669,4.669,4.669,0,0,1-4.669,4.669Zm9.15-12.144a1.675,1.675,0,1,0-1.675,1.675,1.675,1.675,0,0,0,1.675-1.675Zm4.756,1.7A8.289,8.289,0,0,0,25.65,4.35a8.344,8.344,0,0,0-5.869-2.262c-2.312-.131-9.244-.131-11.556,0A8.331,8.331,0,0,0,2.356,4.344,8.316,8.316,0,0,0,.094,10.213c-.131,2.312-.131,9.244,0,11.556a8.289,8.289,0,0,0,2.263,5.869A8.354,8.354,0,0,0,8.225,29.9c2.312.131,9.244.131,11.556,0a8.289,8.289,0,0,0,5.869-2.263,8.344,8.344,0,0,0,2.262-5.869c.132-2.312.132-9.237,0-11.549ZM24.925,24.25a4.727,4.727,0,0,1-2.662,2.662c-1.844.731-6.219.563-8.256.563s-6.419.163-8.256-.562A4.727,4.727,0,0,1,3.088,24.25c-.731-1.844-.562-6.219-.562-8.256s-.163-6.419.562-8.256A4.727,4.727,0,0,1,5.75,5.075c1.844-.731,6.219-.562,8.256-.562s6.419-.163,8.256.563a4.727,4.727,0,0,1,2.662,2.662c.731,1.844.562,6.219.562,8.256S25.656,22.412,24.925,24.25Z" transform="translate(6 5)"/></g></svg>