<svg xmlns="http://www.w3.org/2000/svg" width="28" height="28" viewBox="0 0 28 28"><defs><style>.a{fill:#fff;}</style></defs><g transform="translate(-6 -6)"><path class="a" d="M26,2H1.994A2.009,2.009,0,0,0,0,4.019V27.981A2.009,2.009,0,0,0,1.994,30H26a2.014,2.014,0,0,0,2-2.019V4.019A2.014,2.014,0,0,0,26,2ZM8.463,26H4.312V12.638H8.469V26ZM6.387,10.813A2.406,2.406,0,1,1,8.794,8.406a2.406,2.406,0,0,1-2.407,2.407ZM24.019,26h-4.15V19.5c0-1.55-.031-3.544-2.156-3.544-2.163,0-2.494,1.687-2.494,3.431V26h-4.15V12.638H15.05v1.825h.056a4.371,4.371,0,0,1,3.931-2.156c4.2,0,4.981,2.769,4.981,6.369Z" transform="translate(6 4)"/></g></svg>