<svg xmlns="http://www.w3.org/2000/svg" width="34.135" height="24" viewBox="0 0 34.135 24"><defs><style>.a{fill:#fff;}</style></defs><g transform="translate(-3 -8)"><path class="a" d="M34.353,7.755a4.289,4.289,0,0,0-3.018-3.037C28.674,4,18,4,18,4S7.326,4,4.664,4.718A4.289,4.289,0,0,0,1.647,7.755a44.991,44.991,0,0,0-.713,8.269,44.993,44.993,0,0,0,.713,8.269,4.225,4.225,0,0,0,3.018,2.989C7.326,28,18,28,18,28s10.674,0,13.336-.718a4.225,4.225,0,0,0,3.018-2.989,44.992,44.992,0,0,0,.713-8.269,44.991,44.991,0,0,0-.714-8.269ZM14.509,21.1V10.949l8.921,5.075Z" transform="translate(2.067 4)"/></g></svg>